<?xml version="1.0" encoding="UTF-8"?>
<svg xmlns="http://www.w3.org/2000/svg" xmlns:xlink="http://www.w3.org/1999/xlink" width="399.832pt" height="133.22pt" viewBox="0 0 399.832 133.22" version="1.2">
<defs>
<g>
<symbol overflow="visible" id="glyph0-0">
<path style="stroke:none;" d="M 0 0 L 5.953125 0 L 5.953125 -8.328125 L 0 -8.328125 Z M 2.96875 -4.703125 L 0.953125 -7.734375 L 5 -7.734375 Z M 3.328125 -4.15625 L 5.34375 -7.1875 L 5.34375 -1.125 Z M 0.953125 -0.59375 L 2.96875 -3.625 L 5 -0.59375 Z M 0.59375 -7.1875 L 2.609375 -4.15625 L 0.59375 -1.125 Z M 0.59375 -7.1875 "/>
</symbol>
<symbol overflow="visible" id="glyph0-1">
<path style="stroke:none;" d="M 1.03125 -3.859375 C 1.453125 -4.375 1.671875 -4.53125 1.78125 -4.53125 C 1.90625 -4.53125 2.015625 -4.359375 2.1875 -3.78125 L 2.59375 -2.53125 C 1.84375 -1.4375 1.28125 -0.75 0.9375 -0.75 C 0.828125 -0.75 0.734375 -0.796875 0.671875 -0.875 C 0.625 -0.9375 0.5625 -0.984375 0.46875 -0.984375 C 0.265625 -0.984375 0 -0.71875 0 -0.421875 C -0.015625 -0.109375 0.234375 0.140625 0.546875 0.140625 C 1.109375 0.140625 1.65625 -0.4375 2.71875 -2.109375 L 3.078125 -0.9375 C 3.3125 -0.203125 3.5625 0.140625 3.859375 0.140625 C 4.28125 0.140625 4.828125 -0.296875 5.375 -1.140625 L 5.171875 -1.375 C 4.796875 -0.921875 4.5 -0.6875 4.3125 -0.6875 C 4.125 -0.6875 3.953125 -1.03125 3.71875 -1.78125 L 3.34375 -2.96875 C 3.59375 -3.34375 3.859375 -3.65625 4.109375 -3.953125 C 4.40625 -4.34375 4.65625 -4.546875 4.828125 -4.546875 C 4.9375 -4.546875 5.015625 -4.484375 5.09375 -4.40625 C 5.15625 -4.328125 5.203125 -4.296875 5.265625 -4.296875 C 5.453125 -4.296875 5.71875 -4.546875 5.734375 -4.828125 C 5.734375 -5.078125 5.546875 -5.34375 5.234375 -5.34375 C 4.71875 -5.34375 4.203125 -4.828125 3.203125 -3.375 L 3 -4.03125 C 2.71875 -4.890625 2.5625 -5.34375 2.234375 -5.34375 C 1.859375 -5.34375 1.328125 -4.828125 0.828125 -4.09375 Z M 1.03125 -3.859375 "/>
</symbol>
<symbol overflow="visible" id="glyph0-2">
<path style="stroke:none;" d="M 2.84375 -0.890625 C 2.765625 -1.96875 2.6875 -3.046875 2.578125 -3.9375 C 2.46875 -4.890625 2.296875 -5.34375 1.96875 -5.34375 C 1.53125 -5.34375 0.9375 -4.65625 0.5625 -4.0625 L 0.765625 -3.796875 C 1.0625 -4.203125 1.359375 -4.484375 1.453125 -4.484375 C 1.546875 -4.484375 1.625 -4.34375 1.703125 -3.75 C 1.859375 -2.65625 2.0625 -0.8125 2.0625 0.125 C 1.484375 0.921875 0.546875 1.953125 -0.71875 2.796875 L -0.625 3.0625 L 0.609375 2.734375 C 1.265625 2 2.046875 0.953125 2.75 -0.0625 C 3.390625 -0.953125 4.40625 -2.515625 4.90625 -3.421875 C 5.203125 -3.953125 5.328125 -4.359375 5.328125 -4.6875 C 5.3125 -5.078125 5.125 -5.34375 4.84375 -5.34375 C 4.65625 -5.34375 4.4375 -5.203125 4.359375 -5 C 4.296875 -4.921875 4.296875 -4.796875 4.328125 -4.71875 C 4.390625 -4.578125 4.453125 -4.40625 4.46875 -4.15625 C 4.46875 -3.296875 3.375 -1.671875 2.859375 -0.890625 Z M 2.84375 -0.890625 "/>
</symbol>
<symbol overflow="visible" id="glyph1-0">
<path style="stroke:none;" d="M 0 0 L 5.953125 0 L 5.953125 -8.328125 L 0 -8.328125 Z M 2.96875 -4.703125 L 0.953125 -7.734375 L 5 -7.734375 Z M 3.328125 -4.15625 L 5.34375 -7.1875 L 5.34375 -1.125 Z M 0.953125 -0.59375 L 2.96875 -3.625 L 5 -0.59375 Z M 0.59375 -7.1875 L 2.609375 -4.15625 L 0.59375 -1.125 Z M 0.59375 -7.1875 "/>
</symbol>
<symbol overflow="visible" id="glyph1-1">
<path style="stroke:none;" d="M 4.328125 -5.1875 L 3.015625 -5.1875 L 3.453125 -7.03125 L 3.296875 -7.140625 L 1.921875 -6.28125 L 1.65625 -5.1875 L 0.953125 -5.1875 L 0.609375 -4.734375 L 0.671875 -4.609375 L 1.515625 -4.609375 L 0.875 -1.546875 C 0.578125 -0.28125 0.859375 0.140625 1.296875 0.140625 C 1.953125 0.140625 3.03125 -0.609375 3.5 -1.234375 L 3.3125 -1.546875 C 3.015625 -1.265625 2.484375 -0.921875 2.328125 -0.921875 C 2.203125 -0.921875 2.171875 -1.109375 2.265625 -1.609375 L 2.890625 -4.609375 L 4 -4.65625 Z M 4.328125 -5.1875 "/>
</symbol>
<symbol overflow="visible" id="glyph2-0">
<path style="stroke:none;" d="M 0 0 L 3.96875 0 L 3.96875 -5.546875 L 0 -5.546875 Z M 1.984375 -3.125 L 0.640625 -5.15625 L 3.328125 -5.15625 Z M 2.21875 -2.765625 L 3.5625 -4.796875 L 3.5625 -0.75 Z M 0.640625 -0.390625 L 1.984375 -2.421875 L 3.328125 -0.390625 Z M 0.390625 -4.796875 L 1.75 -2.765625 L 0.390625 -0.75 Z M 0.390625 -4.796875 "/>
</symbol>
<symbol overflow="visible" id="glyph2-1">
<path style="stroke:none;" d="M 0.6875 -2.5625 C 0.96875 -2.921875 1.109375 -3.015625 1.1875 -3.015625 C 1.265625 -3.015625 1.34375 -2.90625 1.453125 -2.515625 L 1.734375 -1.6875 C 1.234375 -0.953125 0.859375 -0.5 0.625 -0.5 C 0.546875 -0.5 0.484375 -0.53125 0.4375 -0.578125 C 0.40625 -0.625 0.375 -0.65625 0.3125 -0.65625 C 0.171875 -0.65625 0 -0.46875 0 -0.28125 C -0.015625 -0.078125 0.15625 0.09375 0.359375 0.09375 C 0.734375 0.09375 1.09375 -0.296875 1.8125 -1.40625 L 2.046875 -0.625 C 2.203125 -0.140625 2.375 0.09375 2.578125 0.09375 C 2.859375 0.09375 3.21875 -0.203125 3.578125 -0.765625 L 3.453125 -0.921875 C 3.1875 -0.625 3 -0.453125 2.875 -0.453125 C 2.75 -0.453125 2.625 -0.6875 2.484375 -1.1875 L 2.21875 -1.984375 C 2.390625 -2.21875 2.5625 -2.4375 2.734375 -2.625 C 2.9375 -2.890625 3.09375 -3.03125 3.21875 -3.03125 C 3.28125 -3.03125 3.34375 -2.984375 3.390625 -2.9375 C 3.4375 -2.890625 3.46875 -2.859375 3.515625 -2.859375 C 3.625 -2.859375 3.8125 -3.03125 3.8125 -3.21875 C 3.8125 -3.375 3.6875 -3.5625 3.484375 -3.5625 C 3.140625 -3.5625 2.796875 -3.21875 2.140625 -2.25 L 2 -2.6875 C 1.8125 -3.25 1.703125 -3.5625 1.484375 -3.5625 C 1.234375 -3.5625 0.890625 -3.21875 0.546875 -2.71875 Z M 0.6875 -2.5625 "/>
</symbol>
<symbol overflow="visible" id="glyph2-2">
<path style="stroke:none;" d="M 1.890625 -0.59375 C 1.84375 -1.3125 1.796875 -2.03125 1.71875 -2.625 C 1.640625 -3.25 1.53125 -3.5625 1.3125 -3.5625 C 1.015625 -3.5625 0.625 -3.09375 0.375 -2.703125 L 0.5 -2.53125 C 0.703125 -2.796875 0.90625 -2.984375 0.96875 -2.984375 C 1.03125 -2.984375 1.078125 -2.890625 1.140625 -2.5 C 1.25 -1.78125 1.375 -0.53125 1.375 0.09375 C 0.984375 0.609375 0.359375 1.296875 -0.484375 1.859375 L -0.421875 2.03125 L 0.40625 1.828125 C 0.84375 1.328125 1.359375 0.640625 1.828125 -0.046875 C 2.25 -0.640625 2.9375 -1.671875 3.265625 -2.28125 C 3.46875 -2.625 3.546875 -2.90625 3.546875 -3.125 C 3.546875 -3.375 3.421875 -3.5625 3.234375 -3.5625 C 3.09375 -3.5625 2.953125 -3.46875 2.90625 -3.328125 C 2.875 -3.28125 2.859375 -3.203125 2.890625 -3.140625 C 2.921875 -3.046875 2.96875 -2.9375 2.984375 -2.765625 C 2.984375 -2.1875 2.25 -1.109375 1.90625 -0.59375 Z M 1.890625 -0.59375 "/>
</symbol>
<symbol overflow="visible" id="glyph3-0">
<path style="stroke:none;" d="M 0 0 L 5.953125 0 L 5.953125 -8.328125 L 0 -8.328125 Z M 2.96875 -4.703125 L 0.953125 -7.734375 L 5 -7.734375 Z M 3.328125 -4.15625 L 5.34375 -7.1875 L 5.34375 -1.125 Z M 0.953125 -0.59375 L 2.96875 -3.625 L 5 -0.59375 Z M 0.59375 -7.1875 L 2.609375 -4.15625 L 0.59375 -1.125 Z M 0.59375 -7.1875 "/>
</symbol>
<symbol overflow="visible" id="glyph3-1">
<path style="stroke:none;" d="M 3.84375 -5.328125 C 1.921875 -5.34375 0.515625 -3.65625 0.515625 -1.84375 C 0.515625 -0.578125 1.1875 0.140625 2.1875 0.140625 C 3.703125 0.140625 5 -1.34375 5 -2.90625 C 5 -3.59375 4.890625 -4.09375 4.328125 -4.609375 L 4.359375 -4.625 C 4.75 -4.59375 5.140625 -4.515625 5.5 -4.515625 C 5.875 -4.515625 6.125 -4.90625 6.296875 -5.359375 L 6.078125 -5.5 C 5.890625 -5.296875 5.703125 -5.234375 5.4375 -5.234375 C 5 -5.234375 4.484375 -5.328125 3.84375 -5.328125 Z M 3.359375 -4.703125 C 3.609375 -4.703125 3.828125 -4.59375 3.953125 -4.34375 C 4.09375 -4.0625 4.125 -3.75 4.125 -3.265625 C 4.125 -2.25 3.625 -0.28125 2.40625 -0.28125 C 1.828125 -0.28125 1.484375 -0.875 1.484375 -1.765625 C 1.484375 -3.09375 2.171875 -4.703125 3.359375 -4.703125 Z M 3.359375 -4.703125 "/>
</symbol>
<symbol overflow="visible" id="glyph3-2">
<path style="stroke:none;" d="M 5.265625 -5.46875 C 5.046875 -5.15625 4.921875 -5.109375 4.640625 -5.125 C 3.875 -5.125 3.296875 -5.15625 2.65625 -5.171875 C 1.421875 -5.1875 0.859375 -4.46875 0.53125 -4.015625 L 0.765625 -3.78125 C 1.34375 -4.390625 1.90625 -4.546875 2.78125 -4.484375 C 2.5625 -3.59375 2.265625 -2.484375 1.96875 -1.21875 C 1.765625 -0.203125 1.984375 0.140625 2.390625 0.140625 C 2.890625 0.140625 3.5 -0.296875 4 -0.890625 L 3.828125 -1.1875 C 3.546875 -0.921875 3.203125 -0.671875 3.015625 -0.671875 C 2.859375 -0.671875 2.78125 -0.921875 2.90625 -1.5 C 3.09375 -2.515625 3.359375 -3.578125 3.5625 -4.453125 C 3.75 -4.453125 4 -4.4375 4.234375 -4.421875 C 4.640625 -4.40625 5 -4.40625 5.15625 -4.453125 C 5.25 -4.625 5.390625 -4.921875 5.578125 -5.421875 Z M 5.265625 -5.46875 "/>
</symbol>
<symbol overflow="visible" id="glyph3-3">
<path style="stroke:none;" d="M 0.453125 -2.3125 C 0.46875 -1.46875 0.46875 -0.828125 0.484375 -0.546875 C 0.75 -0.25 1.578125 0.171875 2.53125 0.171875 C 3.90625 0.171875 5.125 -0.703125 5.125 -2.078125 C 5.125 -3.015625 4.5625 -3.65625 3.75 -4.25 L 3.390625 -4.53125 C 2.765625 -5 2.28125 -5.421875 2.28125 -6.125 C 2.28125 -6.84375 2.78125 -7.5 3.609375 -7.5 C 4.625 -7.5 4.953125 -6.703125 5.046875 -5.796875 L 5.390625 -5.84375 C 5.390625 -6.390625 5.375 -7.015625 5.40625 -7.515625 C 5.328125 -7.546875 5.125 -7.625 4.90625 -7.703125 C 4.5625 -7.828125 4.15625 -7.890625 3.765625 -7.890625 C 2.328125 -7.890625 1.359375 -7 1.359375 -5.765625 C 1.359375 -4.78125 2.140625 -4.125 2.671875 -3.703125 L 3.015625 -3.4375 C 3.71875 -2.890625 4.140625 -2.421875 4.140625 -1.75 C 4.140625 -0.8125 3.546875 -0.21875 2.6875 -0.21875 C 1.390625 -0.21875 0.890625 -1.453125 0.765625 -2.359375 Z M 0.453125 -2.3125 "/>
</symbol>
<symbol overflow="visible" id="glyph4-0">
<path style="stroke:none;" d="M 0 0 L 5.953125 0 L 5.953125 -8.328125 L 0 -8.328125 Z M 2.96875 -4.703125 L 0.953125 -7.734375 L 5 -7.734375 Z M 3.328125 -4.15625 L 5.34375 -7.1875 L 5.34375 -1.125 Z M 0.953125 -0.59375 L 2.96875 -3.625 L 5 -0.59375 Z M 0.59375 -7.1875 L 2.609375 -4.15625 L 0.59375 -1.125 Z M 0.59375 -7.1875 "/>
</symbol>
<symbol overflow="visible" id="glyph4-1">
<path style="stroke:none;" d="M 3.28125 -5.453125 C 1.796875 -4.875 0.578125 -3.8125 0.578125 -2.15625 C 0.578125 -0.921875 1.28125 -0.03125 2.59375 0.125 C 2.234375 1.890625 2.0625 2.609375 1.96875 2.953125 L 2.0625 3.0625 C 2.421875 3.03125 2.84375 2.875 2.984375 2.625 C 3.15625 1.75 3.3125 0.8125 3.4375 0.078125 C 4.96875 -0.125 6.453125 -1.5 6.453125 -3.3125 C 6.453125 -4.703125 5.75 -5.34375 5.09375 -5.34375 C 4.375 -5.34375 3.671875 -4.703125 3.34375 -3.46875 C 3.125 -2.609375 2.890625 -1.46875 2.703125 -0.453125 C 2.0625 -0.65625 1.578125 -1.265625 1.578125 -2.3125 C 1.578125 -3.609375 2.296875 -4.546875 3.40625 -5.109375 Z M 4.796875 -4.84375 C 5.09375 -4.84375 5.640625 -4.421875 5.640625 -3.34375 C 5.640625 -1.859375 4.765625 -0.46875 3.515625 -0.40625 C 3.703125 -1.546875 4 -3.015625 4.171875 -3.8125 C 4.328125 -4.65625 4.546875 -4.84375 4.796875 -4.84375 Z M 4.796875 -4.84375 "/>
</symbol>
<symbol overflow="visible" id="glyph4-2">
<path style="stroke:none;" d="M 1.5625 -7.71875 L 1.484375 -7.390625 C 2.453125 -7.296875 2.5 -7.234375 2.3125 -6.296875 L 1.359375 -1.46875 C 1.15625 -0.46875 1.0625 -0.421875 0.15625 -0.328125 L 0.078125 0 L 3.234375 0 L 3.296875 -0.328125 C 2.21875 -0.421875 2.125 -0.484375 2.3125 -1.46875 L 2.6875 -3.359375 L 3.484375 -3.109375 C 3.625 -3.109375 3.78125 -3.109375 3.9375 -3.125 C 5.21875 -3.203125 6.78125 -4.015625 6.78125 -5.703125 C 6.78125 -7.015625 5.953125 -7.71875 4.265625 -7.71875 Z M 3.3125 -6.6875 C 3.390625 -7.0625 3.46875 -7.1875 3.609375 -7.25 C 3.75 -7.3125 3.921875 -7.34375 4.109375 -7.34375 C 5.15625 -7.34375 5.703125 -6.734375 5.703125 -5.75 C 5.703125 -4.15625 4.484375 -3.59375 3.640625 -3.59375 C 3.203125 -3.59375 2.921875 -3.6875 2.765625 -3.75 Z M 3.3125 -6.6875 "/>
</symbol>
<symbol overflow="visible" id="glyph5-0">
<path style="stroke:none;" d="M 0 0 L 5.953125 0 L 5.953125 -8.328125 L 0 -8.328125 Z M 2.96875 -4.703125 L 0.953125 -7.734375 L 5 -7.734375 Z M 3.328125 -4.15625 L 5.34375 -7.1875 L 5.34375 -1.125 Z M 0.953125 -0.59375 L 2.96875 -3.625 L 5 -0.59375 Z M 0.59375 -7.1875 L 2.609375 -4.15625 L 0.59375 -1.125 Z M 0.59375 -7.1875 "/>
</symbol>
<symbol overflow="visible" id="glyph5-1">
<path style="stroke:none;" d="M 5.59375 -1.328125 C 5.265625 -1.015625 4.890625 -0.75 4.75 -0.75 C 4.65625 -0.75 4.65625 -0.859375 4.703125 -1.125 C 5.109375 -3.453125 5.609375 -5.75 6.171875 -8.140625 C 6.21875 -8.375 6.1875 -8.46875 6.09375 -8.46875 C 5.90625 -8.46875 5.265625 -8.15625 4.265625 -8.046875 L 4.234375 -7.75 L 4.609375 -7.75 C 5.140625 -7.75 5.171875 -7.703125 5.0625 -7.15625 L 4.671875 -5.203125 C 4.390625 -5.328125 4.140625 -5.34375 3.96875 -5.34375 C 3.40625 -5.34375 2.421875 -4.90625 1.859375 -4.421875 C 1 -3.671875 0.484375 -2.40625 0.484375 -1.28125 C 0.484375 -0.328125 0.875 0.140625 1.265625 0.140625 C 1.59375 0.140625 1.96875 -0.046875 2.40625 -0.40625 C 2.828125 -0.71875 3.453125 -1.25 3.984375 -1.96875 L 4 -1.96875 L 3.796875 -0.96875 C 3.609375 -0.046875 3.765625 0.140625 4 0.140625 C 4.359375 0.140625 5.125 -0.3125 5.75 -1.0625 Z M 1.84375 -0.625 C 1.640625 -0.625 1.46875 -0.90625 1.46875 -1.515625 C 1.46875 -2.515625 1.953125 -4 2.75 -4.578125 C 2.953125 -4.734375 3.203125 -4.828125 3.5625 -4.828125 C 3.921875 -4.828125 4.359375 -4.6875 4.53125 -4.515625 L 4.15625 -2.8125 C 3.75 -2.109375 2.453125 -0.625 1.84375 -0.625 Z M 1.84375 -0.625 "/>
</symbol>
<symbol overflow="visible" id="glyph6-0">
<path style="stroke:none;" d="M 5.953125 0 L 5.953125 -8.328125 L 0 -8.328125 L 0 0 Z M 5 -7.734375 L 2.96875 -4.703125 L 0.953125 -7.734375 Z M 5.34375 -1.125 L 3.328125 -4.15625 L 5.34375 -7.1875 Z M 0.953125 -0.59375 L 2.96875 -3.625 L 5 -0.59375 Z M 0.59375 -7.1875 L 2.609375 -4.15625 L 0.59375 -1.125 Z M 0.59375 -7.1875 "/>
</symbol>
<symbol overflow="visible" id="glyph6-1">
<path style="stroke:none;" d="M 4.640625 -1.3125 C 4.09375 -0.8125 3.703125 -0.671875 3.203125 -0.671875 C 2.515625 -0.671875 1.40625 -1.21875 1.40625 -2.859375 C 1.40625 -4.109375 2.078125 -4.765625 2.859375 -4.765625 C 3.296875 -4.765625 3.703125 -4.609375 4.0625 -4.28125 C 4.15625 -4.1875 4.21875 -4.15625 4.296875 -4.15625 C 4.421875 -4.15625 4.6875 -4.40625 4.6875 -4.65625 C 4.6875 -4.796875 4.65625 -4.890625 4.5 -5.015625 C 4.296875 -5.1875 3.90625 -5.34375 3.421875 -5.34375 L 3.40625 -5.34375 C 2.96875 -5.34375 2.265625 -5.140625 1.640625 -4.65625 C 0.84375 -4.0625 0.4375 -3.265625 0.4375 -2.34375 C 0.4375 -1.0625 1.328125 0.140625 2.828125 0.140625 C 3.53125 0.140625 4.3125 -0.375 4.84375 -1.0625 Z M 4.640625 -1.3125 "/>
</symbol>
<symbol overflow="visible" id="glyph6-2">
<path style="stroke:none;" d="M 0.640625 -5.203125 L 0.328125 -4.84375 L 0.375 -4.71875 L 1.203125 -4.71875 L 1.203125 -1.21875 C 1.203125 -0.4375 1.125 -0.375 0.359375 -0.3125 L 0.359375 0 L 3.15625 0 L 3.15625 -0.296875 C 2.21875 -0.390625 2.140625 -0.421875 2.140625 -1.3125 L 2.140625 -4.71875 L 3.421875 -4.71875 C 3.5625 -4.796875 3.609375 -5.09375 3.546875 -5.203125 L 2.140625 -5.203125 L 2.140625 -5.671875 C 2.125 -6.6875 2.265625 -7.25 2.40625 -7.484375 C 2.546875 -7.6875 2.734375 -7.84375 3.046875 -7.84375 C 3.4375 -7.84375 3.78125 -7.625 4 -7.390625 C 4.109375 -7.28125 4.21875 -7.28125 4.328125 -7.359375 C 4.453125 -7.453125 4.515625 -7.546875 4.546875 -7.640625 C 4.609375 -7.78125 4.609375 -7.9375 4.5 -8.0625 C 4.296875 -8.28125 3.953125 -8.4375 3.5625 -8.46875 C 3.09375 -8.40625 2.671875 -8.1875 2.25 -7.84375 C 1.609375 -7.28125 1.421875 -6.6875 1.328125 -6.4375 C 1.25 -6.171875 1.203125 -5.828125 1.203125 -5.453125 L 1.203125 -5.203125 Z M 0.640625 -5.203125 "/>
</symbol>
<symbol overflow="visible" id="glyph6-3">
<path style="stroke:none;" d="M 4.515625 -1.265625 C 4.078125 -0.859375 3.640625 -0.671875 3.15625 -0.671875 C 2.3125 -0.671875 1.375 -1.328125 1.375 -2.953125 C 2.796875 -3 4.296875 -3.109375 4.484375 -3.15625 C 4.703125 -3.203125 4.75 -3.296875 4.75 -3.53125 C 4.75 -4.453125 3.953125 -5.34375 2.96875 -5.34375 L 2.953125 -5.34375 C 2.359375 -5.34375 1.71875 -5 1.21875 -4.46875 C 0.734375 -3.9375 0.4375 -3.203125 0.4375 -2.390625 C 0.4375 -1.046875 1.296875 0.140625 2.765625 0.140625 C 3.125 0.140625 3.953125 -0.078125 4.703125 -1 Z M 2.671875 -4.90625 C 3.34375 -4.90625 3.75 -4.328125 3.734375 -3.703125 C 3.734375 -3.53125 3.65625 -3.46875 3.453125 -3.46875 C 2.765625 -3.453125 2.09375 -3.4375 1.421875 -3.4375 C 1.609375 -4.40625 2.140625 -4.90625 2.671875 -4.90625 Z M 2.671875 -4.90625 "/>
</symbol>
<symbol overflow="visible" id="glyph6-4">
<path style="stroke:none;" d="M 1.375 -4.90625 C 0.984375 -4.90625 0.703125 -4.609375 0.703125 -4.21875 C 0.703125 -3.8125 0.984375 -3.53125 1.375 -3.53125 C 1.75 -3.53125 2.015625 -3.8125 2.015625 -4.21875 C 2.015625 -4.609375 1.75 -4.90625 1.375 -4.90625 Z M 1.359375 0.140625 C 1.75 0.140625 2.03125 -0.125 2.03125 -0.546875 C 2.03125 -0.921875 1.75 -1.21875 1.375 -1.21875 C 1 -1.21875 0.71875 -0.921875 0.71875 -0.546875 C 0.71875 -0.125 1 0.140625 1.359375 0.140625 Z M 1.359375 0.140625 "/>
</symbol>
<symbol overflow="visible" id="glyph7-0">
<path style="stroke:none;" d="M 5.953125 0 L 5.953125 -8.328125 L 0 -8.328125 L 0 0 Z M 5 -7.734375 L 2.96875 -4.703125 L 0.953125 -7.734375 Z M 5.34375 -1.125 L 3.328125 -4.15625 L 5.34375 -7.1875 Z M 0.953125 -0.59375 L 2.96875 -3.625 L 5 -0.59375 Z M 0.59375 -7.1875 L 2.609375 -4.15625 L 0.59375 -1.125 Z M 0.59375 -7.1875 "/>
</symbol>
<symbol overflow="visible" id="glyph7-1">
<path style="stroke:none;" d="M 3.0625 -5.34375 C 1.96875 -5.34375 0.4375 -4.453125 0.4375 -2.484375 C 0.4375 -1.171875 1.421875 0.140625 3.046875 0.140625 C 4.21875 0.140625 5.625 -0.765625 5.625 -2.6875 C 5.625 -4.15625 4.53125 -5.34375 3.0625 -5.34375 Z M 2.90625 -4.953125 C 3.953125 -4.953125 4.515625 -3.8125 4.515625 -2.421875 C 4.515625 -0.796875 3.90625 -0.25 3.171875 -0.25 C 2.1875 -0.25 1.546875 -1.375 1.546875 -2.859375 C 1.546875 -4.203125 2.1875 -4.953125 2.90625 -4.953125 Z M 2.90625 -4.953125 "/>
</symbol>
<symbol overflow="visible" id="glyph7-2">
<path style="stroke:none;" d="M 1.609375 -6.375 C 1.953125 -6.375 2.21875 -6.65625 2.21875 -6.984375 C 2.21875 -7.34375 1.953125 -7.59375 1.609375 -7.59375 C 1.296875 -7.59375 1.015625 -7.34375 1.015625 -6.984375 C 1.015625 -6.65625 1.296875 -6.375 1.609375 -6.375 Z M 3 0 L 3 -0.3125 C 2.234375 -0.375 2.15625 -0.453125 2.15625 -1.265625 L 2.15625 -5.359375 C 1.640625 -5.15625 1.0625 -5 0.46875 -4.90625 L 0.46875 -4.609375 C 1.171875 -4.5 1.21875 -4.453125 1.21875 -3.703125 L 1.21875 -1.265625 C 1.21875 -0.453125 1.125 -0.375 0.375 -0.3125 L 0.375 0 Z M 3 0 "/>
</symbol>
<symbol overflow="visible" id="glyph7-3">
<path style="stroke:none;" d="M 6.234375 0 L 6.234375 -0.3125 C 5.546875 -0.375 5.46875 -0.421875 5.46875 -1.234375 L 5.46875 -3.53125 C 5.46875 -4.671875 4.890625 -5.34375 3.9375 -5.34375 C 3.59375 -5.34375 3.28125 -5.203125 2.953125 -4.984375 C 2.65625 -4.78125 2.390625 -4.609375 2.15625 -4.421875 L 2.15625 -5.359375 C 1.625 -5.140625 1.0625 -5 0.5 -4.890625 L 0.5 -4.609375 C 1.140625 -4.5 1.21875 -4.453125 1.21875 -3.6875 L 1.21875 -1.234375 C 1.21875 -0.453125 1.15625 -0.390625 0.34375 -0.3125 L 0.34375 0 L 2.921875 0 L 2.921875 -0.3125 C 2.21875 -0.375 2.15625 -0.421875 2.15625 -1.234375 L 2.15625 -4.03125 C 2.515625 -4.34375 2.96875 -4.640625 3.453125 -4.640625 C 4.25 -4.640625 4.53125 -4.109375 4.53125 -3.28125 L 4.53125 -1.296875 C 4.53125 -0.46875 4.453125 -0.375 3.75 -0.3125 L 3.75 0 Z M 6.234375 0 "/>
</symbol>
<symbol overflow="visible" id="glyph7-4">
<path style="stroke:none;" d="M 2.015625 -4.515625 L 2.015625 -5.453125 C 1.453125 -5.234375 0.78125 -5.03125 0.28125 -4.953125 L 0.28125 -4.65625 C 1.015625 -4.5625 1.0625 -4.546875 1.0625 -3.765625 L 1.0625 1.609375 C 1.0625 2.390625 0.96875 2.46875 0.203125 2.53125 L 0.203125 2.859375 L 3.015625 2.859375 L 3.015625 2.53125 C 2.09375 2.46875 2.015625 2.390625 2.015625 1.484375 L 2.015625 -0.078125 C 2.171875 0.015625 2.46875 0.125 2.828125 0.140625 C 4.375 -0.140625 5.796875 -1.296875 5.796875 -3.09375 C 5.796875 -4.25 5 -5.34375 3.6875 -5.34375 C 3.546875 -5.34375 3.3125 -5.28125 3.109375 -5.15625 Z M 2.015625 -4.109375 C 2.328125 -4.359375 2.8125 -4.625 3.203125 -4.625 C 4.0625 -4.625 4.796875 -3.90625 4.796875 -2.625 C 4.796875 -1.296875 4.125 -0.4375 3.125 -0.4375 C 2.71875 -0.4375 2.265625 -0.625 2.015625 -0.90625 Z M 2.015625 -4.109375 "/>
</symbol>
<symbol overflow="visible" id="glyph7-5">
<path style="stroke:none;" d="M 2.828125 0 L 2.828125 -0.3125 C 2.0625 -0.375 1.96875 -0.453125 1.96875 -1.234375 L 1.96875 -8.46875 C 1.5625 -8.328125 0.828125 -8.125 0.21875 -8.046875 L 0.21875 -7.765625 C 0.96875 -7.6875 1.03125 -7.671875 1.03125 -6.859375 L 1.03125 -1.234375 C 1.03125 -0.453125 0.921875 -0.375 0.171875 -0.3125 L 0.171875 0 Z M 2.828125 0 "/>
</symbol>
<symbol overflow="visible" id="glyph7-6">
<path style="stroke:none;" d="M 5.5 -5.203125 C 5.0625 -5.125 4.453125 -5.046875 3.890625 -5.015625 C 3.53125 -5.234375 3.140625 -5.34375 2.75 -5.34375 L 2.734375 -5.34375 C 1.8125 -5.34375 0.609375 -4.703125 0.609375 -3.359375 C 0.609375 -2.5625 1.125 -2 1.65625 -1.765625 C 1.46875 -1.53125 1.078125 -1.21875 0.609375 -1.046875 C 0.59375 -0.921875 0.625 -0.71875 0.734375 -0.546875 C 0.890625 -0.296875 1.1875 -0.03125 1.609375 0.109375 C 1.328125 0.328125 0.875 0.703125 0.625 0.9375 C 0.453125 1.125 0.34375 1.34375 0.34375 1.609375 C 0.359375 2.28125 1.078125 3.0625 2.40625 3.0625 C 4 3.0625 5.375 1.90625 5.375 0.703125 C 5.375 -0.46875 4.40625 -0.703125 3.671875 -0.703125 C 3.265625 -0.703125 2.859375 -0.6875 2.40625 -0.6875 C 1.875 -0.6875 1.671875 -0.921875 1.671875 -1.140625 C 1.671875 -1.3125 1.859375 -1.53125 2.015625 -1.640625 C 2.21875 -1.609375 2.4375 -1.578125 2.625 -1.578125 C 3.640625 -1.578125 4.703125 -2.203125 4.703125 -3.484375 C 4.703125 -3.90625 4.5625 -4.28125 4.359375 -4.53125 L 5.03125 -4.5 C 5.21875 -4.609375 5.453125 -4.90625 5.5625 -5.09375 Z M 2.609375 -4.96875 C 3.296875 -4.96875 3.734375 -4.296875 3.734375 -3.375 C 3.734375 -2.4375 3.265625 -1.96875 2.75 -1.96875 C 2.09375 -1.96875 1.625 -2.625 1.625 -3.5625 C 1.625 -4.46875 2.109375 -4.96875 2.609375 -4.96875 Z M 2.859375 0.125 C 3.390625 0.125 3.734375 0.171875 4.03125 0.28125 C 4.359375 0.421875 4.5625 0.71875 4.5625 1.125 C 4.5625 1.859375 3.984375 2.453125 2.859375 2.453125 C 1.96875 2.453125 1.28125 1.96875 1.28125 1.3125 C 1.28125 0.96875 1.515625 0.640625 1.828125 0.375 C 2.046875 0.203125 2.3125 0.125 2.859375 0.125 Z M 2.859375 0.125 "/>
</symbol>
<symbol overflow="visible" id="glyph8-0">
<path style="stroke:none;" d="M 5.953125 0 L 5.953125 -8.328125 L 0 -8.328125 L 0 0 Z M 5 -7.734375 L 2.96875 -4.703125 L 0.953125 -7.734375 Z M 5.34375 -1.125 L 3.328125 -4.15625 L 5.34375 -7.1875 Z M 0.953125 -0.59375 L 2.96875 -3.625 L 5 -0.59375 Z M 0.59375 -7.1875 L 2.609375 -4.15625 L 0.59375 -1.125 Z M 0.59375 -7.1875 "/>
</symbol>
<symbol overflow="visible" id="glyph8-1">
<path style="stroke:none;" d="M 3.796875 -3.859375 C 3.765625 -4.15625 3.640625 -4.859375 3.53125 -5.125 C 3.296875 -5.234375 2.96875 -5.34375 2.484375 -5.34375 C 1.390625 -5.34375 0.671875 -4.625 0.671875 -3.796875 C 0.671875 -2.890625 1.453125 -2.484375 2.171875 -2.171875 C 2.765625 -1.890625 3.109375 -1.609375 3.109375 -1.078125 C 3.109375 -0.578125 2.703125 -0.25 2.265625 -0.25 C 1.546875 -0.25 1.015625 -0.9375 0.8125 -1.71875 L 0.484375 -1.671875 C 0.484375 -1.234375 0.609375 -0.421875 0.6875 -0.265625 C 0.890625 -0.078125 1.4375 0.140625 2.046875 0.140625 C 3 0.140625 4 -0.421875 4 -1.5 C 4 -2.3125 3.40625 -2.75 2.5 -3.109375 C 1.96875 -3.34375 1.5 -3.609375 1.5 -4.140625 C 1.5 -4.609375 1.8125 -4.953125 2.265625 -4.953125 C 2.859375 -4.953125 3.265625 -4.5 3.5 -3.78125 Z M 3.796875 -3.859375 "/>
</symbol>
<symbol overflow="visible" id="glyph8-2">
<path style="stroke:none;" d="M 2.15625 -4.0625 L 2.15625 -5.359375 C 1.578125 -5.125 1.0625 -4.984375 0.46875 -4.890625 L 0.46875 -4.609375 C 1.171875 -4.53125 1.21875 -4.484375 1.21875 -3.703125 L 1.21875 -1.234375 C 1.21875 -0.453125 1.125 -0.375 0.390625 -0.3125 L 0.390625 0 L 3.125 0 L 3.125 -0.3125 C 2.21875 -0.375 2.15625 -0.453125 2.15625 -1.234375 L 2.15625 -3.40625 C 2.40625 -4.078125 2.796875 -4.421875 3.109375 -4.421875 C 3.296875 -4.421875 3.4375 -4.359375 3.609375 -4.1875 C 3.6875 -4.109375 3.78125 -4.109375 3.921875 -4.15625 C 4.15625 -4.265625 4.296875 -4.5 4.296875 -4.75 C 4.296875 -5.015625 4.015625 -5.34375 3.609375 -5.34375 C 3.046875 -5.34375 2.53125 -4.671875 2.171875 -4.0625 Z M 2.15625 -4.0625 "/>
</symbol>
<symbol overflow="visible" id="glyph8-3">
<path style="stroke:none;" d="M 6.78125 -2 L 6.4375 -2.078125 C 6.0625 -1.046875 5.71875 -0.84375 4.9375 -0.84375 L 1.609375 -0.84375 L 4.5 -4.25 L 1.984375 -7.296875 L 4.140625 -7.296875 C 5.015625 -7.296875 5.3125 -7.234375 5.5 -6.984375 C 5.6875 -6.796875 5.796875 -6.5 5.953125 -5.953125 L 6.296875 -6 C 6.234375 -6.640625 6.171875 -7.53125 6.15625 -7.734375 L 0.5625 -7.734375 L 0.5625 -7.46875 L 3.5 -3.859375 L 0.390625 -0.28125 L 0.390625 0 L 6.3125 0 Z M 6.78125 -2 "/>
</symbol>
<symbol overflow="visible" id="glyph9-0">
<path style="stroke:none;" d="M 0 0 L 3.96875 0 L 3.96875 -5.546875 L 0 -5.546875 Z M 1.984375 -3.125 L 0.640625 -5.15625 L 3.328125 -5.15625 Z M 2.21875 -2.765625 L 3.5625 -4.796875 L 3.5625 -0.75 Z M 0.640625 -0.390625 L 1.984375 -2.421875 L 3.328125 -0.390625 Z M 0.390625 -4.796875 L 1.75 -2.765625 L 0.390625 -0.75 Z M 0.390625 -4.796875 "/>
</symbol>
<symbol overflow="visible" id="glyph9-1">
<path style="stroke:none;" d="M 3.796875 -0.859375 C 3.578125 -0.640625 3.359375 -0.5 3.28125 -0.5 C 3.234375 -0.5 3.21875 -0.578125 3.265625 -0.78125 C 3.40625 -1.328125 3.53125 -1.890625 3.65625 -2.421875 C 3.890625 -3.4375 3.671875 -3.5625 3.484375 -3.5625 C 3.328125 -3.5625 3.15625 -3.5 2.953125 -3.375 C 2.625 -3.1875 2.03125 -2.71875 1.5 -1.984375 L 1.484375 -1.984375 L 1.640625 -2.671875 C 1.796875 -3.28125 1.765625 -3.5625 1.578125 -3.5625 C 1.359375 -3.5625 0.90625 -3.265625 0.46875 -2.796875 L 0.578125 -2.609375 C 0.78125 -2.796875 1.015625 -2.96875 1.078125 -2.96875 C 1.140625 -2.96875 1.15625 -2.90625 1.09375 -2.65625 C 0.90625 -1.78125 0.671875 -0.828125 0.453125 0.03125 L 0.5 0.09375 C 0.65625 0.03125 0.859375 -0.03125 1.0625 -0.0625 C 1.171875 -0.546875 1.28125 -1.015625 1.375 -1.40625 C 1.78125 -2.078125 2.6875 -3.046875 3.046875 -3.046875 C 3.15625 -3.046875 3.203125 -2.9375 3.09375 -2.484375 C 2.96875 -1.90625 2.828125 -1.3125 2.6875 -0.734375 C 2.53125 -0.125 2.609375 0.09375 2.796875 0.09375 C 3.015625 0.09375 3.453125 -0.15625 3.921875 -0.671875 Z M 3.796875 -0.859375 "/>
</symbol>
<symbol overflow="visible" id="glyph10-0">
<path style="stroke:none;" d=""/>
</symbol>
<symbol overflow="visible" id="glyph10-1">
<path style="stroke:none;" d="M 4.03125 2.90625 L 4.25 2.65625 C 2.640625 1.265625 2.0625 -0.890625 2.0625 -3.03125 C 2.0625 -5.15625 2.640625 -7.328125 4.25 -8.703125 L 4.03125 -8.96875 C 2.109375 -7.640625 1.140625 -5.375 1.140625 -3.03125 C 1.140625 -0.6875 2.109375 1.59375 4.03125 2.90625 Z M 4.03125 2.90625 "/>
</symbol>
<symbol overflow="visible" id="glyph10-2">
<path style="stroke:none;" d="M 1.140625 2.90625 C 3.0625 1.59375 4.03125 -0.6875 4.03125 -3.03125 C 4.03125 -5.375 3.0625 -7.640625 1.140625 -8.96875 L 0.921875 -8.703125 C 2.53125 -7.328125 3.109375 -5.15625 3.109375 -3.03125 C 3.109375 -0.890625 2.53125 1.265625 0.921875 2.65625 Z M 1.140625 2.90625 "/>
</symbol>
<symbol overflow="visible" id="glyph11-0">
<path style="stroke:none;" d="M 5.953125 0 L 5.953125 -8.328125 L 0 -8.328125 L 0 0 Z M 5 -7.734375 L 2.96875 -4.703125 L 0.953125 -7.734375 Z M 5.34375 -1.125 L 3.328125 -4.15625 L 5.34375 -7.1875 Z M 0.953125 -0.59375 L 2.96875 -3.625 L 5 -0.59375 Z M 0.59375 -7.1875 L 2.609375 -4.15625 L 0.59375 -1.125 Z M 0.59375 -7.1875 "/>
</symbol>
<symbol overflow="visible" id="glyph11-1">
<path style="stroke:none;" d="M 5.6875 -5.203125 L 3.53125 -5.203125 L 3.53125 -4.890625 C 4.21875 -4.796875 4.296875 -4.65625 4.15625 -4.21875 C 3.90625 -3.46875 3.390625 -2.0625 3.0625 -1.265625 L 1.984375 -4.234375 C 1.8125 -4.6875 1.875 -4.796875 2.4375 -4.890625 L 2.421875 -5.203125 L 0.03125 -5.203125 L 0.03125 -4.890625 C 0.671875 -4.796875 0.78125 -4.65625 1.046875 -4 C 1.390625 -3.15625 1.921875 -1.71875 2.40625 -0.359375 C 2.46875 -0.15625 2.484375 0 2.421875 0.171875 C 2.359375 0.328125 2.265625 0.578125 2.0625 1 C 1.765625 1.515625 1.546875 1.8125 1.171875 2.046875 C 0.96875 2.1875 0.875 2.296875 0.875 2.484375 C 0.875 2.765625 1.203125 3.0625 1.53125 3.0625 C 1.703125 3.0625 1.859375 3 1.921875 2.765625 C 2.078125 2.125 2.34375 1.453125 3.140625 -0.453125 C 3.953125 -2.40625 4.328125 -3.40625 4.640625 -4.03125 C 4.953125 -4.703125 5.046875 -4.796875 5.6875 -4.890625 Z M 5.6875 -5.203125 "/>
</symbol>
<symbol overflow="visible" id="glyph12-0">
<path style="stroke:none;" d="M 0 0 L 5.953125 0 L 5.953125 -8.328125 L 0 -8.328125 Z M 2.96875 -4.703125 L 0.953125 -7.734375 L 5 -7.734375 Z M 3.328125 -4.15625 L 5.34375 -7.1875 L 5.34375 -1.125 Z M 0.953125 -0.59375 L 2.96875 -3.625 L 5 -0.59375 Z M 0.59375 -7.1875 L 2.609375 -4.15625 L 0.59375 -1.125 Z M 0.59375 -7.1875 "/>
</symbol>
<symbol overflow="visible" id="glyph12-1">
<path style="stroke:none;" d="M 1.46875 -7.71875 L 1.375 -7.3125 C 2.296875 -7.234375 2.359375 -7.140625 2.171875 -6.1875 L 1.265625 -1.515625 C 1.109375 -0.609375 0.984375 -0.46875 0.171875 -0.40625 L 0.078125 0 L 3.6875 0 L 3.78125 -0.40625 C 2.734375 -0.46875 2.640625 -0.578125 2.8125 -1.515625 L 3.203125 -3.609375 L 4.203125 -3.609375 C 5.203125 -3.609375 5.25 -3.515625 5.265625 -2.609375 L 5.703125 -2.609375 L 6.15625 -5.046875 L 5.75 -5.046875 C 5.40625 -4.28125 5.34375 -4.171875 4.34375 -4.171875 L 3.328125 -4.171875 L 3.8125 -6.71875 C 3.890625 -7.125 3.96875 -7.21875 4.375 -7.21875 L 5 -7.21875 C 5.75 -7.21875 6 -7.140625 6.140625 -6.921875 C 6.265625 -6.734375 6.328125 -6.34375 6.375 -5.8125 L 6.796875 -5.84375 C 6.875 -6.4375 6.96875 -7.390625 7 -7.71875 Z M 1.46875 -7.71875 "/>
</symbol>
<symbol overflow="visible" id="glyph13-0">
<path style="stroke:none;" d=""/>
</symbol>
<symbol overflow="visible" id="glyph13-1">
<path style="stroke:none;" d="M 5.4375 -4.359375 L 0.921875 -4.359375 C 0.765625 -4.359375 0.640625 -4.234375 0.640625 -4.078125 C 0.640625 -3.9375 0.765625 -3.8125 0.921875 -3.8125 L 5.4375 -3.8125 C 5.59375 -3.8125 5.703125 -3.9375 5.703125 -4.078125 C 5.703125 -4.234375 5.59375 -4.359375 5.4375 -4.359375 Z M 5.4375 -2.234375 L 0.921875 -2.234375 C 0.765625 -2.234375 0.640625 -2.109375 0.640625 -1.96875 C 0.640625 -1.8125 0.765625 -1.703125 0.921875 -1.703125 L 5.4375 -1.703125 C 5.59375 -1.703125 5.703125 -1.8125 5.703125 -1.96875 C 5.703125 -2.109375 5.59375 -2.234375 5.4375 -2.234375 Z M 5.4375 -2.234375 "/>
</symbol>
<symbol overflow="visible" id="glyph14-0">
<path style="stroke:none;" d="M 5.953125 0 L 5.953125 -8.328125 L 0 -8.328125 L 0 0 Z M 5 -7.734375 L 2.96875 -4.703125 L 0.953125 -7.734375 Z M 5.34375 -1.125 L 3.328125 -4.15625 L 5.34375 -7.1875 Z M 0.953125 -0.59375 L 2.96875 -3.625 L 5 -0.59375 Z M 0.59375 -7.1875 L 2.609375 -4.15625 L 0.59375 -1.125 Z M 0.59375 -7.1875 "/>
</symbol>
<symbol overflow="visible" id="glyph14-1">
<path style="stroke:none;" d="M 3.140625 -7.546875 C 1.15625 -7.546875 0.46875 -5.46875 0.46875 -3.703125 C 0.46875 -1.984375 1.125 0.140625 3.109375 0.140625 C 5.125 0.140625 5.75 -1.96875 5.75 -3.703125 C 5.75 -5.4375 5.125 -7.546875 3.140625 -7.546875 Z M 3.109375 -7.078125 C 3.921875 -7.078125 4.125 -5.34375 4.125 -3.734375 C 4.125 -2.0625 3.921875 -0.328125 3.125 -0.328125 C 2.3125 -0.328125 2.109375 -2.0625 2.109375 -3.75 C 2.109375 -5.34375 2.3125 -7.078125 3.109375 -7.078125 Z M 3.109375 -7.078125 "/>
</symbol>
</g>
<clipPath id="clip2">
  <path d="M 87 0.976563 L 144 0.976563 L 144 82 L 87 82 Z M 87 0.976563 "/>
</clipPath>
<clipPath id="clip1">
  <rect x="0" y="0" width="394" height="130"/>
</clipPath>
<g id="surface5" clip-path="url(#clip1)">
<path style=" stroke:none;fill-rule:nonzero;fill:rgb(0%,0%,0%);fill-opacity:0.196078;" d="M 93.253906 75.996094 L 138.347656 75.996094 L 93.253906 2.722656 Z M 93.253906 75.996094 "/>
<g clip-path="url(#clip2)" clip-rule="nonzero">
<path style="fill:none;stroke-width:0.992126;stroke-linecap:butt;stroke-linejoin:miter;stroke:rgb(0%,0%,0%);stroke-opacity:1;stroke-miterlimit:4;" d="M 93.73328 75.454633 L 139.088786 75.454633 L 93.73328 1.755866 Z M 93.73328 75.454633 " transform="matrix(0.994229,0,0,0.994229,0.0615781,0.976924)"/>
</g>
<path style="fill:none;stroke-width:0.75;stroke-linecap:butt;stroke-linejoin:miter;stroke:rgb(0%,0%,0%);stroke-opacity:1;stroke-miterlimit:4;" d="M 42.712266 115.136771 L 76.728895 115.136771 " transform="matrix(0.994229,0,0,0.994229,0.0615781,0.976924)"/>
<path style="fill-rule:nonzero;fill:rgb(100%,100%,100%);fill-opacity:1;stroke-width:0.604724;stroke-linecap:butt;stroke-linejoin:miter;stroke:rgb(0%,0%,0%);stroke-opacity:1;stroke-miterlimit:4;" d="M 72.47387 117.757364 L 80.312074 115.038548 L 72.47387 112.520107 C 75.110178 115.1407 75.110178 115.1407 72.47387 117.757364 Z M 72.47387 117.757364 " transform="matrix(0.994229,0,0,0.994229,0.0615781,0.976924)"/>
<path style="fill:none;stroke-width:0.75;stroke-linecap:butt;stroke-linejoin:miter;stroke:rgb(0%,0%,0%);stroke-opacity:1;stroke-miterlimit:4;" d="M 42.712266 115.136771 L 42.712266 80.935483 " transform="matrix(0.994229,0,0,0.994229,0.0615781,0.976924)"/>
<path style="fill-rule:nonzero;fill:rgb(100%,100%,100%);fill-opacity:1;stroke-width:0.604724;stroke-linecap:butt;stroke-linejoin:miter;stroke:rgb(0%,0%,0%);stroke-opacity:1;stroke-miterlimit:4;" d="M -85.186579 45.332859 L -77.348375 42.610114 L -85.186579 40.091673 C -82.546342 42.712266 -82.546342 42.712266 -85.186579 45.332859 Z M -85.186579 45.332859 " transform="matrix(0,-0.994229,0.994229,0,0.0615781,0.976924)"/>
<path style="fill-rule:nonzero;fill:rgb(100%,100%,100%);fill-opacity:1;stroke-width:0.708661;stroke-linecap:butt;stroke-linejoin:miter;stroke:rgb(0%,0%,0%);stroke-opacity:1;stroke-miterlimit:4;" d="M 45.191418 115.136771 C 45.191418 116.507966 44.079532 117.615922 42.712266 117.615922 C 41.341071 117.615922 40.229186 116.507966 40.229186 115.136771 C 40.229186 113.769505 41.341071 112.65762 42.712266 112.65762 C 44.079532 112.65762 45.191418 113.769505 45.191418 115.136771 Z M 45.191418 115.136771 " transform="matrix(0.994229,0,0,0.994229,0.0615781,0.976924)"/>
</g>
<clipPath id="clip3">
  <rect x="0" y="0" width="394" height="130"/>
</clipPath>
<g id="surface8" clip-path="url(#clip3)">
<path style="fill:none;stroke-width:0.510236;stroke-linecap:butt;stroke-linejoin:miter;stroke:rgb(0%,28.627014%,51.371765%);stroke-opacity:1;stroke-miterlimit:4;" d="M 93.73328 41.438004 L 59.720581 41.438004 L 59.720581 24.42969 " transform="matrix(0.994229,0,0,0.994229,0.0615781,0.976924)"/>
<path style="fill:none;stroke-width:0.992126;stroke-linecap:butt;stroke-linejoin:miter;stroke:rgb(0%,28.627014%,51.371765%);stroke-opacity:1;stroke-miterlimit:4;" d="M 93.73328 41.438004 L 64.439219 26.91277 " transform="matrix(0.994229,0,0,0.994229,0.0615781,0.976924)"/>
<path style="fill-rule:nonzero;fill:rgb(100%,100%,100%);fill-opacity:1;stroke-width:0.541788;stroke-linecap:butt;stroke-linejoin:miter;stroke:rgb(0%,28.627014%,51.371765%);stroke-opacity:1;stroke-miterlimit:4;" d="M -67.303357 7.16371 L -58.144715 3.923293 L -67.304419 0.925104 C -64.221581 4.044539 -64.221581 4.044539 -67.303357 7.16371 Z M -67.303357 7.16371 " transform="matrix(-0.994229,-0.492943,0.492943,-0.994229,0.0615781,0.976924)"/>
<path style="fill:none;stroke-width:0.510236;stroke-linecap:butt;stroke-linejoin:miter;stroke:rgb(0%,28.627014%,51.371765%);stroke-opacity:1;stroke-miterlimit:4;" d="M 116.411033 75.454633 L 116.411033 109.467333 L 93.73328 109.467333 " transform="matrix(0.994229,0,0,0.994229,0.0615781,0.976924)"/>
<path style="fill:none;stroke-width:0.992126;stroke-linecap:butt;stroke-linejoin:miter;stroke:rgb(0%,28.627014%,51.371765%);stroke-opacity:1;stroke-miterlimit:4;" d="M 116.411033 75.454633 L 96.774268 104.819415 " transform="matrix(0.994229,0,0,0.994229,0.0615781,0.976924)"/>
<path style="fill-rule:nonzero;fill:rgb(100%,100%,100%);fill-opacity:1;stroke-width:0.502706;stroke-linecap:butt;stroke-linejoin:miter;stroke:rgb(0%,28.627014%,51.371765%);stroke-opacity:1;stroke-miterlimit:4;" d="M 23.204285 -112.415029 L 31.698935 -115.42312 L 23.202771 -118.205251 C 26.065576 -115.310399 26.065576 -115.310399 23.204285 -112.415029 Z M 23.204285 -112.415029 " transform="matrix(-0.664769,0.994229,-0.994229,-0.664769,0.0615781,0.976924)"/>
<path style="fill:none;stroke-width:0.510236;stroke-linecap:butt;stroke-linejoin:miter;stroke:rgb(95.684814%,60.783386%,0%);stroke-opacity:1;stroke-miterlimit:4;" d="M 119.8567 43.928942 L 161.774396 17.636579 L 171.121307 33.120471 " transform="matrix(0.994229,0,0,0.994229,0.0615781,0.976924)"/>
<path style="fill:none;stroke-width:0.992126;stroke-linecap:butt;stroke-linejoin:miter;stroke:rgb(95.684814%,60.783386%,0%);stroke-opacity:1;stroke-miterlimit:4;" d="M 119.573817 43.9368 L 166.650191 34.377727 " transform="matrix(0.994229,0,0,0.994229,0.0615781,0.976924)"/>
<path style="fill-rule:nonzero;fill:rgb(100%,100%,100%);fill-opacity:1;stroke-width:0.592632;stroke-linecap:butt;stroke-linejoin:miter;stroke:rgb(95.684814%,60.783386%,0%);stroke-opacity:1;stroke-miterlimit:4;" d="M 148.022282 68.930789 L 158.041765 65.386073 L 148.025616 62.102995 C 151.39858 65.518445 151.39858 65.518445 148.022282 68.930789 Z M 148.022282 68.930789 " transform="matrix(0.994229,-0.201868,0.201868,0.994229,0.0615781,0.976924)"/>
</g>
<clipPath id="clip4">
  <rect x="0" y="0" width="394" height="130"/>
</clipPath>
<g id="surface11" clip-path="url(#clip4)">
<path style="fill:none;stroke-width:0.510236;stroke-linecap:butt;stroke-linejoin:miter;stroke:rgb(0%,0%,0%);stroke-opacity:1;stroke-miterlimit:4;" d="M 108.781061 33.603729 C 104.160646 35.564262 99.170912 36.566138 94.134031 36.542564 " transform="matrix(0.994229,0,0,0.994229,0.0615781,0.976924)"/>
<path style="fill-rule:nonzero;fill:rgb(100%,100%,100%);fill-opacity:1;stroke-width:0.556484;stroke-linecap:butt;stroke-linejoin:miter;stroke:rgb(0%,0%,0%);stroke-opacity:1;stroke-miterlimit:4;" d="M -76.098596 -65.222727 L -83.317287 -67.723214 L -76.100493 -70.040395 C -78.527844 -67.631034 -78.527844 -67.631034 -76.098596 -65.222727 Z M -76.098596 -65.222727 " transform="matrix(-0.994229,0.422855,-0.422855,-0.994229,0.0615781,0.976924)"/>
</g>
<clipPath id="clip5">
  <rect x="0" y="0" width="394" height="130"/>
</clipPath>
<g id="surface14" clip-path="url(#clip5)">
<path style="fill:none;stroke-width:0.510236;stroke-linecap:butt;stroke-linejoin:miter;stroke:rgb(0%,0%,0%);stroke-opacity:1;stroke-miterlimit:4;" d="M 114.760885 35.304953 L 124.881794 29.521576 " transform="matrix(0.994229,0,0,0.994229,0.0615781,0.976924)"/>
</g>
<clipPath id="clip6">
  <rect x="0" y="0" width="394" height="130"/>
</clipPath>
<g id="surface17" clip-path="url(#clip6)">
<path style="fill:none;stroke-width:0.510236;stroke-linecap:butt;stroke-linejoin:miter;stroke:rgb(0%,0%,0%);stroke-opacity:1;stroke-miterlimit:4;" d="M 85.435392 63.396763 L 93.693991 55.546772 " transform="matrix(0.994229,0,0,0.994229,0.0615781,0.976924)"/>
</g>
<clipPath id="clip7">
  <rect x="0" y="0" width="394" height="130"/>
</clipPath>
<g id="surface20" clip-path="url(#clip7)">
<path style="fill:none;stroke-width:0.510236;stroke-linecap:butt;stroke-linejoin:miter;stroke:rgb(0%,0%,0%);stroke-opacity:1;stroke-miterlimit:4;" d="M 122.198339 75.376054 L 130.6691 83.842887 " transform="matrix(0.994229,0,0,0.994229,0.0615781,0.976924)"/>
</g>
<clipPath id="clip8">
  <rect x="0" y="0" width="394" height="130"/>
</clipPath>
<g id="surface23" clip-path="url(#clip8)">
<path style="fill:none;stroke-width:0.510236;stroke-linecap:butt;stroke-linejoin:miter;stroke:rgb(0%,28.627014%,51.371765%);stroke-opacity:1;stroke-miterlimit:4;" d="M 71.055528 35.768566 L 79.652015 27.832138 " transform="matrix(0.994229,0,0,0.994229,0.0615781,0.976924)"/>
<path style="fill:none;stroke-width:0.510236;stroke-linecap:butt;stroke-linejoin:miter;stroke:rgb(0%,28.627014%,51.371765%);stroke-opacity:1;stroke-miterlimit:4;" d="M 110.116896 94.659216 L 102.180468 86.062729 " transform="matrix(0.994229,0,0,0.994229,0.0615781,0.976924)"/>
<path style="fill:none;stroke-width:0.510236;stroke-linecap:butt;stroke-linejoin:miter;stroke:rgb(0%,28.627014%,51.371765%);stroke-opacity:1;stroke-miterlimit:4;" d="M 109.126807 96.50974 L 101.190379 87.909324 " transform="matrix(0.994229,0,0,0.994229,0.0615781,0.976924)"/>
<path style="fill:none;stroke-width:0.992126;stroke-linecap:butt;stroke-linejoin:miter;stroke:rgb(0%,28.627014%,51.371765%);stroke-opacity:1;stroke-miterlimit:4;" d="M 314.837439 68.437574 L 285.539448 53.91234 " transform="matrix(0.994229,0,0,0.994229,0.0615781,0.976924)"/>
<path style="fill-rule:nonzero;fill:rgb(100%,100%,100%);fill-opacity:1;stroke-width:0.541788;stroke-linecap:butt;stroke-linejoin:miter;stroke:rgb(0%,28.627014%,51.371765%);stroke-opacity:1;stroke-miterlimit:4;" d="M -255.521897 73.483645 L -246.366409 70.244792 L -255.522959 67.24504 C -252.440121 70.364474 -252.440121 70.364474 -255.521897 73.483645 Z M -255.521897 73.483645 " transform="matrix(-0.994229,-0.492943,0.492943,-0.994229,0.0615781,0.976924)"/>
<path style="fill:none;stroke-width:0.992126;stroke-linecap:butt;stroke-linejoin:miter;stroke:rgb(0%,28.627014%,51.371765%);stroke-opacity:1;stroke-miterlimit:4;" d="M 280.82081 51.429259 L 264.397905 75.53714 " transform="matrix(0.994229,0,0,0.994229,0.0615781,0.976924)"/>
<path style="fill-rule:nonzero;fill:rgb(100%,100%,100%);fill-opacity:1;stroke-width:0.49979;stroke-linecap:butt;stroke-linejoin:miter;stroke:rgb(0%,28.627014%,51.371765%);stroke-opacity:1;stroke-miterlimit:4;" d="M -75.913872 -212.868308 L -67.464115 -215.858075 L -75.913645 -218.624337 C -73.070438 -215.748114 -73.070438 -215.748114 -75.913872 -212.868308 Z M -75.913872 -212.868308 " transform="matrix(-0.67724,0.994229,-0.994229,-0.67724,0.0615781,0.976924)"/>
<path style="fill:none;stroke-width:0.992126;stroke-linecap:butt;stroke-linejoin:miter;stroke:rgb(95.684814%,60.783386%,0%);stroke-opacity:1;stroke-miterlimit:4;" d="M 262.233068 79.603577 L 309.313371 70.044504 " transform="matrix(0.994229,0,0,0.994229,0.0615781,0.976924)"/>
<path style="fill-rule:nonzero;fill:rgb(100%,100%,100%);fill-opacity:1;stroke-width:0.592632;stroke-linecap:butt;stroke-linejoin:miter;stroke:rgb(95.684814%,60.783386%,0%);stroke-opacity:1;stroke-miterlimit:4;" d="M 278.082704 131.001106 L 288.098415 127.455623 L 278.081499 124.176319 C 281.451456 127.587229 281.451456 127.587229 278.082704 131.001106 Z M 278.082704 131.001106 " transform="matrix(0.994229,-0.201868,0.201868,0.994229,0.0615781,0.976924)"/>
</g>
<clipPath id="clip9">
  <rect x="0" y="0" width="394" height="130"/>
</clipPath>
<g id="surface26" clip-path="url(#clip9)">
<path style="fill:none;stroke-width:0.510236;stroke-linecap:butt;stroke-linejoin:miter;stroke:rgb(0%,28.627014%,51.371765%);stroke-opacity:1;stroke-miterlimit:4;" d="M 290.929933 62.304522 L 299.522491 54.372024 " transform="matrix(0.994229,0,0,0.994229,0.0615781,0.976924)"/>
<path style="fill:none;stroke-width:0.510236;stroke-linecap:butt;stroke-linejoin:miter;stroke:rgb(0%,28.627014%,51.371765%);stroke-opacity:1;stroke-miterlimit:4;" d="M 278.577394 64.544009 L 270.644895 55.943594 " transform="matrix(0.994229,0,0,0.994229,0.0615781,0.976924)"/>
<path style="fill:none;stroke-width:0.510236;stroke-linecap:butt;stroke-linejoin:miter;stroke:rgb(0%,28.627014%,51.371765%);stroke-opacity:1;stroke-miterlimit:4;" d="M 277.591234 66.390604 L 269.650877 57.794117 " transform="matrix(0.994229,0,0,0.994229,0.0615781,0.976924)"/>
<path style="fill:none;stroke-width:0.510236;stroke-linecap:butt;stroke-linejoin:miter;stroke:rgb(95.684814%,60.783386%,0%);stroke-opacity:1;stroke-miterlimit:4;" d="M 281.241205 79.136035 L 286.714197 70.873507 " transform="matrix(0.994229,0,0,0.994229,0.0615781,0.976924)"/>
<path style="fill:none;stroke-width:0.510236;stroke-linecap:butt;stroke-linejoin:miter;stroke:rgb(95.684814%,60.783386%,0%);stroke-opacity:1;stroke-miterlimit:4;" d="M 283.567128 79.033883 L 289.04012 70.771355 " transform="matrix(0.994229,0,0,0.994229,0.0615781,0.976924)"/>
<path style="fill:none;stroke-width:0.510236;stroke-linecap:butt;stroke-linejoin:miter;stroke:rgb(95.684814%,60.783386%,0%);stroke-opacity:1;stroke-miterlimit:4;" d="M 141.22612 42.895635 L 146.699112 34.633107 " transform="matrix(0.994229,0,0,0.994229,0.0615781,0.976924)"/>
<path style="fill:none;stroke-width:0.510236;stroke-linecap:butt;stroke-linejoin:miter;stroke:rgb(95.684814%,60.783386%,0%);stroke-opacity:1;stroke-miterlimit:4;" d="M 143.552044 42.793483 L 149.021107 34.530955 " transform="matrix(0.994229,0,0,0.994229,0.0615781,0.976924)"/>
<path style="fill-rule:nonzero;fill:rgb(100%,100%,100%);fill-opacity:1;stroke-width:0.493107;stroke-linecap:butt;stroke-linejoin:miter;stroke:rgb(0%,0%,0%);stroke-opacity:1;stroke-miterlimit:4;" d="M 112.222799 52.643297 C 112.222799 53.680533 111.378081 54.521323 110.344773 54.521323 C 109.303608 54.521323 108.462819 53.680533 108.462819 52.643297 C 108.462819 51.606061 109.303608 50.761342 110.344773 50.761342 C 111.378081 50.761342 112.222799 51.606061 112.222799 52.643297 Z M 112.222799 52.643297 " transform="matrix(0.994229,0,0,0.994229,0.0615781,0.976924)"/>
</g>
</defs>
<g id="surface1">
<use xlink:href="#surface5" transform="matrix(1,0,0,1,3,1)"/>
<g style="fill:rgb(0%,0%,0%);fill-opacity:1;">
  <use xlink:href="#glyph0-1" x="76.29977" y="128.884385"/>
</g>
<g style="fill:rgb(0%,0%,0%);fill-opacity:1;">
  <use xlink:href="#glyph0-2" x="35.024436" y="85.101731"/>
</g>
<use xlink:href="#surface8" transform="matrix(1,0,0,1,3,1)"/>
<g style="fill:rgb(0%,28.627014%,51.371765%);fill-opacity:1;">
  <use xlink:href="#glyph1-1" x="55.666577" y="22.500261"/>
</g>
<g style="fill:rgb(0%,28.627014%,51.371765%);fill-opacity:1;">
  <use xlink:href="#glyph2-1" x="60.27758" y="24.282825"/>
</g>
<g style="fill:rgb(0%,28.627014%,51.371765%);fill-opacity:1;">
  <use xlink:href="#glyph1-1" x="87.862073" y="98.102611"/>
</g>
<g style="fill:rgb(0%,28.627014%,51.371765%);fill-opacity:1;">
  <use xlink:href="#glyph2-2" x="92.869753" y="99.885175"/>
</g>
<g style="fill:rgb(0%,28.627014%,51.371765%);fill-opacity:1;">
  <use xlink:href="#glyph3-1" x="63.128885" y="53.305895"/>
</g>
<g style="fill:rgb(0%,28.627014%,51.371765%);fill-opacity:1;">
  <use xlink:href="#glyph2-1" x="68.952787" y="55.088458"/>
</g>
<g style="fill:rgb(0%,28.627014%,51.371765%);fill-opacity:1;">
  <use xlink:href="#glyph3-2" x="45.489166" y="37.986589"/>
</g>
<g style="fill:rgb(0%,28.627014%,51.371765%);fill-opacity:1;">
  <use xlink:href="#glyph2-1" x="51.051598" y="39.770147"/>
</g>
<g style="fill:rgb(0%,28.627014%,51.371765%);fill-opacity:1;">
  <use xlink:href="#glyph2-2" x="55.837517" y="39.770147"/>
</g>
<g style="fill:rgb(0%,28.627014%,51.371765%);fill-opacity:1;">
  <use xlink:href="#glyph3-1" x="121.501117" y="99.591892"/>
</g>
<g style="fill:rgb(0%,28.627014%,51.371765%);fill-opacity:1;">
  <use xlink:href="#glyph2-2" x="127.720702" y="101.374455"/>
</g>
<g style="fill:rgb(0%,28.627014%,51.371765%);fill-opacity:1;">
  <use xlink:href="#glyph3-2" x="101.215887" y="120.95183"/>
</g>
<g style="fill:rgb(0%,28.627014%,51.371765%);fill-opacity:1;">
  <use xlink:href="#glyph2-2" x="107.174002" y="122.734393"/>
</g>
<g style="fill:rgb(0%,28.627014%,51.371765%);fill-opacity:1;">
  <use xlink:href="#glyph2-1" x="111.08039" y="122.734393"/>
</g>
<use xlink:href="#surface11" transform="matrix(1,0,0,1,3,1)"/>
<g style="fill:rgb(0%,0%,0%);fill-opacity:1;">
  <use xlink:href="#glyph4-1" x="99.783275" y="32.155729"/>
</g>
<g style="fill:rgb(0%,0%,0%);fill-opacity:1;">
  <use xlink:href="#glyph5-1" x="122.399855" y="28.402703"/>
</g>
<g style="fill:rgb(0%,0%,0%);fill-opacity:1;">
  <use xlink:href="#glyph3-3" x="129.388934" y="28.402703"/>
</g>
<use xlink:href="#surface14" transform="matrix(1,0,0,1,3,1)"/>
<g style="fill:rgb(0%,0%,0%);fill-opacity:1;">
  <use xlink:href="#glyph6-1" x="48.361349" y="70.215888"/>
</g>
<g style="fill:rgb(0%,0%,0%);fill-opacity:1;">
  <use xlink:href="#glyph7-1" x="53.388913" y="70.215888"/>
</g>
<g style="fill:rgb(0%,0%,0%);fill-opacity:1;">
  <use xlink:href="#glyph8-1" x="59.450423" y="70.215888"/>
</g>
<g style="fill:rgb(0%,0%,0%);fill-opacity:1;">
  <use xlink:href="#glyph4-1" x="65.773402" y="70.215888"/>
</g>
<g style="fill:rgb(0%,0%,0%);fill-opacity:1;">
  <use xlink:href="#glyph5-1" x="72.952369" y="70.215888"/>
</g>
<g style="fill:rgb(0%,0%,0%);fill-opacity:1;">
  <use xlink:href="#glyph3-3" x="79.941448" y="70.215888"/>
</g>
<use xlink:href="#surface17" transform="matrix(1,0,0,1,3,1)"/>
<g style="fill:rgb(0%,0%,0%);fill-opacity:1;">
  <use xlink:href="#glyph8-1" x="134.966279" y="88.836862"/>
</g>
<g style="fill:rgb(0%,0%,0%);fill-opacity:1;">
  <use xlink:href="#glyph7-2" x="139.328737" y="88.836862"/>
  <use xlink:href="#glyph7-3" x="142.514081" y="88.836862"/>
</g>
<g style="fill:rgb(0%,0%,0%);fill-opacity:1;">
  <use xlink:href="#glyph4-1" x="150.976539" y="88.836862"/>
</g>
<g style="fill:rgb(0%,0%,0%);fill-opacity:1;">
  <use xlink:href="#glyph5-1" x="158.155507" y="88.836862"/>
</g>
<g style="fill:rgb(0%,0%,0%);fill-opacity:1;">
  <use xlink:href="#glyph3-3" x="165.143592" y="88.836862"/>
</g>
<use xlink:href="#surface20" transform="matrix(1,0,0,1,3,1)"/>
<g style="fill:rgb(95.684814%,60.783386%,0%);fill-opacity:1;">
  <use xlink:href="#glyph1-1" x="152.341547" y="49.420643"/>
</g>
<g style="fill:rgb(95.684814%,60.783386%,0%);fill-opacity:1;">
  <use xlink:href="#glyph9-1" x="156.944597" y="51.203206"/>
</g>
<g style="fill:rgb(95.684814%,60.783386%,0%);fill-opacity:1;">
  <use xlink:href="#glyph3-1" x="136.084731" y="18.957007"/>
</g>
<g style="fill:rgb(95.684814%,60.783386%,0%);fill-opacity:1;">
  <use xlink:href="#glyph10-1" x="142.847137" y="18.957007"/>
</g>
<g style="fill:rgb(95.684814%,60.783386%,0%);fill-opacity:1;">
  <use xlink:href="#glyph4-1" x="148.256465" y="18.957007"/>
</g>
<g style="fill:rgb(95.684814%,60.783386%,0%);fill-opacity:1;">
  <use xlink:href="#glyph10-2" x="155.316131" y="18.957007"/>
</g>
<g style="fill:rgb(95.684814%,60.783386%,0%);fill-opacity:1;">
  <use xlink:href="#glyph3-2" x="169.017908" y="26.361653"/>
</g>
<g style="fill:rgb(95.684814%,60.783386%,0%);fill-opacity:1;">
  <use xlink:href="#glyph10-1" x="174.59227" y="26.361653"/>
</g>
<g style="fill:rgb(95.684814%,60.783386%,0%);fill-opacity:1;">
  <use xlink:href="#glyph4-1" x="180.001598" y="26.361653"/>
</g>
<g style="fill:rgb(95.684814%,60.783386%,0%);fill-opacity:1;">
  <use xlink:href="#glyph10-2" x="187.061264" y="26.361653"/>
</g>
<use xlink:href="#surface23" transform="matrix(1,0,0,1,3,1)"/>
<g style="fill:rgb(0%,0%,0%);fill-opacity:1;">
  <use xlink:href="#glyph6-2" x="224.619362" y="38.875386"/>
</g>
<g style="fill:rgb(0%,0%,0%);fill-opacity:1;">
  <use xlink:href="#glyph7-1" x="228.030391" y="38.875386"/>
</g>
<g style="fill:rgb(0%,0%,0%);fill-opacity:1;">
  <use xlink:href="#glyph8-2" x="233.949733" y="38.875386"/>
</g>
<g style="fill:rgb(0%,0%,0%);fill-opacity:1;">
  <use xlink:href="#glyph6-1" x="238.20482" y="38.875386"/>
  <use xlink:href="#glyph6-3" x="243.232433" y="38.875386"/>
</g>
<g style="fill:rgb(0%,0%,0%);fill-opacity:1;">
  <use xlink:href="#glyph7-4" x="250.98201" y="38.875386"/>
</g>
<g style="fill:rgb(0%,0%,0%);fill-opacity:1;">
  <use xlink:href="#glyph7-1" x="257.31704" y="38.875386"/>
</g>
<g style="fill:rgb(0%,0%,0%);fill-opacity:1;">
  <use xlink:href="#glyph7-5" x="263.295502" y="38.875386"/>
</g>
<g style="fill:rgb(0%,0%,0%);fill-opacity:1;">
  <use xlink:href="#glyph11-1" x="266.218799" y="38.875386"/>
</g>
<g style="fill:rgb(0%,0%,0%);fill-opacity:1;">
  <use xlink:href="#glyph7-6" x="271.674854" y="38.875386"/>
</g>
<g style="fill:rgb(0%,0%,0%);fill-opacity:1;">
  <use xlink:href="#glyph7-1" x="277.142234" y="38.875386"/>
</g>
<g style="fill:rgb(0%,0%,0%);fill-opacity:1;">
  <use xlink:href="#glyph7-3" x="283.061268" y="38.875386"/>
</g>
<g style="fill:rgb(0%,0%,0%);fill-opacity:1;">
  <use xlink:href="#glyph6-4" x="289.562124" y="38.875386"/>
</g>
<g style="fill:rgb(0%,0%,0%);fill-opacity:1;">
  <use xlink:href="#glyph8-3" x="295.208067" y="38.875386"/>
</g>
<g style="fill:rgb(0%,0%,0%);fill-opacity:1;">
  <use xlink:href="#glyph12-1" x="302.790671" y="38.875386"/>
</g>
<g style="fill:rgb(0%,0%,0%);fill-opacity:1;">
  <use xlink:href="#glyph13-1" x="313.01978" y="38.875386"/>
</g>
<g style="fill:rgb(0%,0%,0%);fill-opacity:1;">
  <use xlink:href="#glyph14-1" x="322.244768" y="38.875386"/>
</g>
<g style="fill:rgb(0%,28.627014%,51.371765%);fill-opacity:1;">
  <use xlink:href="#glyph1-1" x="304.735286" y="59.911221"/>
</g>
<g style="fill:rgb(0%,28.627014%,51.371765%);fill-opacity:1;">
  <use xlink:href="#glyph2-1" x="309.347282" y="61.693784"/>
</g>
<g style="fill:rgb(0%,28.627014%,51.371765%);fill-opacity:1;">
  <use xlink:href="#glyph6-1" x="315.789563" y="59.911221"/>
</g>
<g style="fill:rgb(0%,28.627014%,51.371765%);fill-opacity:1;">
  <use xlink:href="#glyph7-1" x="320.817127" y="59.911221"/>
</g>
<g style="fill:rgb(0%,28.627014%,51.371765%);fill-opacity:1;">
  <use xlink:href="#glyph8-1" x="326.878637" y="59.911221"/>
</g>
<g style="fill:rgb(0%,28.627014%,51.371765%);fill-opacity:1;">
  <use xlink:href="#glyph4-1" x="333.201616" y="59.911221"/>
</g>
<g style="fill:rgb(0%,28.627014%,51.371765%);fill-opacity:1;">
  <use xlink:href="#glyph5-1" x="342.103496" y="59.911221"/>
</g>
<g style="fill:rgb(0%,28.627014%,51.371765%);fill-opacity:1;">
  <use xlink:href="#glyph3-3" x="349.092575" y="59.911221"/>
</g>
<g style="fill:rgb(0%,28.627014%,51.371765%);fill-opacity:1;">
  <use xlink:href="#glyph1-1" x="219.716071" y="66.732284"/>
</g>
<g style="fill:rgb(0%,28.627014%,51.371765%);fill-opacity:1;">
  <use xlink:href="#glyph2-2" x="224.723751" y="68.515841"/>
</g>
<g style="fill:rgb(0%,28.627014%,51.371765%);fill-opacity:1;">
  <use xlink:href="#glyph8-1" x="230.681867" y="66.732284"/>
</g>
<g style="fill:rgb(0%,28.627014%,51.371765%);fill-opacity:1;">
  <use xlink:href="#glyph7-2" x="235.044324" y="66.732284"/>
  <use xlink:href="#glyph7-3" x="238.229668" y="66.732284"/>
</g>
<g style="fill:rgb(0%,28.627014%,51.371765%);fill-opacity:1;">
  <use xlink:href="#glyph4-1" x="246.692127" y="66.732284"/>
</g>
<g style="fill:rgb(0%,28.627014%,51.371765%);fill-opacity:1;">
  <use xlink:href="#glyph5-1" x="255.594007" y="66.732284"/>
</g>
<g style="fill:rgb(0%,28.627014%,51.371765%);fill-opacity:1;">
  <use xlink:href="#glyph3-3" x="262.583086" y="66.732284"/>
</g>
<g style="fill:rgb(95.684814%,60.783386%,0%);fill-opacity:1;">
  <use xlink:href="#glyph1-1" x="281.450617" y="89.275295"/>
</g>
<g style="fill:rgb(95.684814%,60.783386%,0%);fill-opacity:1;">
  <use xlink:href="#glyph9-1" x="286.053666" y="91.057858"/>
</g>
<g style="fill:rgb(95.684814%,60.783386%,0%);fill-opacity:1;">
  <use xlink:href="#glyph5-1" x="292.805136" y="89.275295"/>
</g>
<g style="fill:rgb(95.684814%,60.783386%,0%);fill-opacity:1;">
  <use xlink:href="#glyph3-3" x="299.794215" y="89.275295"/>
</g>
<use xlink:href="#surface26" transform="matrix(1,0,0,1,3,1)"/>
<g style="fill:rgb(0%,0%,0%);fill-opacity:1;">
  <use xlink:href="#glyph4-2" x="109.619683" y="68.936379"/>
</g>
</g>
</svg>
