<?xml version="1.0" encoding="UTF-8"?>
<svg xmlns="http://www.w3.org/2000/svg" xmlns:xlink="http://www.w3.org/1999/xlink" width="285.37pt" height="145.171pt" viewBox="0 0 285.37 145.171" version="1.2">
<defs>
<g>
<symbol overflow="visible" id="glyph0-0">
<path style="stroke:none;" d="M 0 0 L 5.953125 0 L 5.953125 -8.328125 L 0 -8.328125 Z M 2.96875 -4.703125 L 0.953125 -7.734375 L 5 -7.734375 Z M 3.328125 -4.15625 L 5.34375 -7.1875 L 5.34375 -1.125 Z M 0.953125 -0.59375 L 2.96875 -3.625 L 5 -0.59375 Z M 0.59375 -7.1875 L 2.609375 -4.15625 L 0.59375 -1.125 Z M 0.59375 -7.1875 "/>
</symbol>
<symbol overflow="visible" id="glyph0-1">
<path style="stroke:none;" d="M 1.5625 -7.71875 L 1.484375 -7.390625 C 2.453125 -7.296875 2.5 -7.234375 2.3125 -6.296875 L 1.359375 -1.46875 C 1.15625 -0.46875 1.0625 -0.421875 0.15625 -0.328125 L 0.078125 0 L 3.234375 0 L 3.296875 -0.328125 C 2.21875 -0.421875 2.125 -0.484375 2.3125 -1.46875 L 2.6875 -3.359375 L 3.484375 -3.109375 C 3.625 -3.109375 3.78125 -3.109375 3.9375 -3.125 C 5.21875 -3.203125 6.78125 -4.015625 6.78125 -5.703125 C 6.78125 -7.015625 5.953125 -7.71875 4.265625 -7.71875 Z M 3.3125 -6.6875 C 3.390625 -7.0625 3.46875 -7.1875 3.609375 -7.25 C 3.75 -7.3125 3.921875 -7.34375 4.109375 -7.34375 C 5.15625 -7.34375 5.703125 -6.734375 5.703125 -5.75 C 5.703125 -4.15625 4.484375 -3.59375 3.640625 -3.59375 C 3.203125 -3.59375 2.921875 -3.6875 2.765625 -3.75 Z M 3.3125 -6.6875 "/>
</symbol>
<symbol overflow="visible" id="glyph0-2">
<path style="stroke:none;" d="M 2.5625 -1.390625 C 2.21875 -1.046875 1.75 -0.734375 1.609375 -0.734375 C 1.546875 -0.734375 1.5 -0.8125 1.5625 -1.15625 C 2.0625 -3.5 2.546875 -5.8125 3.03125 -8.109375 C 3.078125 -8.359375 3.0625 -8.46875 2.953125 -8.46875 C 2.8125 -8.46875 2.125 -8.140625 1.203125 -8.046875 L 1.15625 -7.75 L 1.484375 -7.75 C 2.015625 -7.734375 2.09375 -7.671875 1.96875 -7.140625 C 1.5625 -5.203125 1.15625 -3.25 0.734375 -1.296875 C 0.484375 -0.125 0.671875 0.140625 0.921875 0.140625 C 1.28125 0.140625 2.125 -0.390625 2.734375 -1.125 Z M 2.5625 -1.390625 "/>
</symbol>
<symbol overflow="visible" id="glyph0-3">
<path style="stroke:none;" d="M 4.515625 -7.71875 L 1.484375 -7.71875 L 1.421875 -7.390625 C 2.40625 -7.3125 2.484375 -7.25 2.3125 -6.375 L 1.34375 -1.375 C 1.171875 -0.46875 1.09375 -0.390625 0.171875 -0.328125 L 0.078125 0 L 3.125 0 L 3.203125 -0.328125 C 2.21875 -0.390625 2.15625 -0.46875 2.328125 -1.375 L 3.28125 -6.375 C 3.453125 -7.234375 3.5 -7.3125 4.453125 -7.390625 Z M 4.515625 -7.71875 "/>
</symbol>
<symbol overflow="visible" id="glyph1-0">
<path style="stroke:none;" d="M 5.953125 0 L 5.953125 -8.328125 L 0 -8.328125 L 0 0 Z M 5 -7.734375 L 2.96875 -4.703125 L 0.953125 -7.734375 Z M 5.34375 -1.125 L 3.328125 -4.15625 L 5.34375 -7.1875 Z M 0.953125 -0.59375 L 2.96875 -3.625 L 5 -0.59375 Z M 0.59375 -7.1875 L 2.609375 -4.15625 L 0.59375 -1.125 Z M 0.59375 -7.1875 "/>
</symbol>
<symbol overflow="visible" id="glyph1-1">
<path style="stroke:none;" d="M 3.203125 -4.53125 C 3.546875 -4.75 3.859375 -5 4.046875 -5.1875 C 4.28125 -5.40625 4.40625 -5.65625 4.40625 -6 C 4.40625 -6.890625 3.71875 -7.546875 2.65625 -7.546875 L 2.640625 -7.546875 C 2.015625 -7.546875 1.46875 -7.25 1.125 -6.890625 L 0.625 -6.140625 L 0.859375 -5.90625 C 1.125 -6.34375 1.609375 -6.859375 2.296875 -6.859375 C 2.90625 -6.859375 3.40625 -6.5 3.40625 -5.734375 C 3.40625 -4.84375 2.59375 -4.390625 1.515625 -4.03125 L 1.578125 -3.734375 C 1.765625 -3.796875 2.0625 -3.859375 2.34375 -3.859375 C 3.015625 -3.859375 3.859375 -3.390625 3.859375 -2.28125 C 3.859375 -0.984375 3.15625 -0.46875 2.390625 -0.46875 C 1.703125 -0.46875 1.21875 -0.8125 0.921875 -1.078125 C 0.828125 -1.171875 0.734375 -1.15625 0.640625 -1.078125 C 0.53125 -1 0.390625 -0.84375 0.375 -0.6875 C 0.359375 -0.546875 0.40625 -0.421875 0.578125 -0.265625 C 0.71875 -0.125 1.21875 0.140625 1.765625 0.140625 C 2.5625 0.140625 4.875 -0.671875 4.875 -2.671875 C 4.875 -3.546875 4.25 -4.296875 3.203125 -4.5 Z M 3.203125 -4.53125 "/>
</symbol>
<symbol overflow="visible" id="glyph1-2">
<path style="stroke:none;" d="M 3.796875 -3.859375 C 3.765625 -4.15625 3.640625 -4.859375 3.53125 -5.125 C 3.296875 -5.234375 2.96875 -5.34375 2.484375 -5.34375 C 1.390625 -5.34375 0.671875 -4.625 0.671875 -3.796875 C 0.671875 -2.890625 1.453125 -2.484375 2.171875 -2.171875 C 2.765625 -1.890625 3.109375 -1.609375 3.109375 -1.078125 C 3.109375 -0.578125 2.703125 -0.25 2.265625 -0.25 C 1.546875 -0.25 1.015625 -0.9375 0.8125 -1.71875 L 0.484375 -1.671875 C 0.484375 -1.234375 0.609375 -0.421875 0.6875 -0.265625 C 0.890625 -0.078125 1.4375 0.140625 2.046875 0.140625 C 3 0.140625 4 -0.421875 4 -1.5 C 4 -2.3125 3.40625 -2.75 2.5 -3.109375 C 1.96875 -3.34375 1.5 -3.609375 1.5 -4.140625 C 1.5 -4.609375 1.8125 -4.953125 2.265625 -4.953125 C 2.859375 -4.953125 3.265625 -4.5 3.5 -3.78125 Z M 3.796875 -3.859375 "/>
</symbol>
<symbol overflow="visible" id="glyph1-3">
<path style="stroke:none;" d="M 3.546875 -0.421875 L 3.4375 -0.734375 C 3.28125 -0.65625 3.015625 -0.53125 2.71875 -0.53125 C 2.40625 -0.53125 2.015625 -0.71875 2.015625 -1.671875 L 2.015625 -4.71875 L 3.28125 -4.71875 C 3.4375 -4.8125 3.46875 -5.0625 3.359375 -5.203125 L 2.015625 -5.203125 L 2.015625 -6.828125 L 1.84375 -6.84375 L 1.0625 -6.046875 L 1.0625 -5.203125 L 0.53125 -5.203125 L 0.203125 -4.84375 L 0.25 -4.71875 L 1.0625 -4.71875 L 1.0625 -1.265625 C 1.0625 -0.328125 1.484375 0.140625 2.234375 0.140625 C 2.359375 0.140625 2.53125 0.09375 2.734375 -0.015625 Z M 3.546875 -0.421875 "/>
</symbol>
<symbol overflow="visible" id="glyph1-4">
<path style="stroke:none;" d="M 2.15625 -4.0625 L 2.15625 -5.359375 C 1.578125 -5.125 1.0625 -4.984375 0.46875 -4.890625 L 0.46875 -4.609375 C 1.171875 -4.53125 1.21875 -4.484375 1.21875 -3.703125 L 1.21875 -1.234375 C 1.21875 -0.453125 1.125 -0.375 0.390625 -0.3125 L 0.390625 0 L 3.125 0 L 3.125 -0.3125 C 2.21875 -0.375 2.15625 -0.453125 2.15625 -1.234375 L 2.15625 -3.40625 C 2.40625 -4.078125 2.796875 -4.421875 3.109375 -4.421875 C 3.296875 -4.421875 3.4375 -4.359375 3.609375 -4.1875 C 3.6875 -4.109375 3.78125 -4.109375 3.921875 -4.15625 C 4.15625 -4.265625 4.296875 -4.5 4.296875 -4.75 C 4.296875 -5.015625 4.015625 -5.34375 3.609375 -5.34375 C 3.046875 -5.34375 2.53125 -4.671875 2.171875 -4.0625 Z M 2.15625 -4.0625 "/>
</symbol>
<symbol overflow="visible" id="glyph1-5">
<path style="stroke:none;" d="M 4.890625 -1.65625 C 4.53125 -0.90625 4.375 -0.875 3.734375 -0.875 L 1.53125 -0.875 L 3.171875 -2.65625 C 4.171875 -3.765625 4.75 -4.515625 4.75 -5.578125 C 4.75 -6.828125 3.828125 -7.546875 2.765625 -7.546875 C 2.09375 -7.546875 1.515625 -7.25 1.171875 -6.84375 L 0.46875 -5.890625 L 0.75 -5.65625 C 1.0625 -6.125 1.546875 -6.75 2.359375 -6.75 C 3.265625 -6.75 3.75 -6.171875 3.75 -5.1875 C 3.75 -4.125 2.984375 -3.140625 2.265625 -2.28125 C 1.6875 -1.59375 1.015625 -0.90625 0.359375 -0.25 L 0.359375 0 L 4.796875 0 C 4.9375 -0.53125 5.046875 -1.0625 5.203125 -1.5625 Z M 4.890625 -1.65625 "/>
</symbol>
<symbol overflow="visible" id="glyph2-0">
<path style="stroke:none;" d="M 0 0 L 5.953125 0 L 5.953125 -8.328125 L 0 -8.328125 Z M 2.96875 -4.703125 L 0.953125 -7.734375 L 5 -7.734375 Z M 3.328125 -4.15625 L 5.34375 -7.1875 L 5.34375 -1.125 Z M 0.953125 -0.59375 L 2.96875 -3.625 L 5 -0.59375 Z M 0.59375 -7.1875 L 2.609375 -4.15625 L 0.59375 -1.125 Z M 0.59375 -7.1875 "/>
</symbol>
<symbol overflow="visible" id="glyph2-1">
<path style="stroke:none;" d="M 1.53125 -7.71875 L 1.4375 -7.390625 C 2.40625 -7.3125 2.46875 -7.25 2.296875 -6.296875 L 1.34375 -1.421875 C 1.171875 -0.46875 1.0625 -0.40625 0.09375 -0.328125 L 0.03125 0 L 5.59375 0 C 5.765625 -0.375 6.21875 -1.515625 6.34375 -1.828125 L 6.015625 -1.953125 C 5.765625 -1.515625 5.5 -1.078125 5.203125 -0.8125 C 4.875 -0.5 4.53125 -0.40625 3.640625 -0.40625 C 2.96875 -0.40625 2.609375 -0.421875 2.4375 -0.578125 C 2.265625 -0.71875 2.265625 -1.015625 2.390625 -1.71875 L 2.78125 -3.796875 L 3.90625 -3.796875 C 4.953125 -3.796875 4.953125 -3.703125 4.921875 -2.859375 L 5.265625 -2.859375 L 5.71875 -5.125 L 5.375 -5.125 C 5.09375 -4.34375 5 -4.25 4.015625 -4.25 L 2.859375 -4.25 L 3.375 -6.828125 C 3.453125 -7.28125 3.484375 -7.3125 3.890625 -7.3125 L 4.8125 -7.3125 C 5.703125 -7.3125 5.84375 -7.1875 5.96875 -6.921875 C 6.09375 -6.6875 6.125 -6.328125 6.125 -5.875 L 6.46875 -5.890625 C 6.546875 -6.59375 6.65625 -7.5 6.6875 -7.71875 Z M 1.53125 -7.71875 "/>
</symbol>
<symbol overflow="visible" id="glyph3-0">
<path style="stroke:none;" d="M 0 0 L 3.96875 0 L 3.96875 -5.546875 L 0 -5.546875 Z M 1.984375 -3.125 L 0.640625 -5.15625 L 3.328125 -5.15625 Z M 2.21875 -2.765625 L 3.5625 -4.796875 L 3.5625 -0.75 Z M 0.640625 -0.390625 L 1.984375 -2.421875 L 3.328125 -0.390625 Z M 0.390625 -4.796875 L 1.75 -2.765625 L 0.390625 -0.75 Z M 0.390625 -4.796875 "/>
</symbol>
<symbol overflow="visible" id="glyph3-1">
<path style="stroke:none;" d="M 1.890625 -0.59375 C 1.84375 -1.3125 1.796875 -2.03125 1.71875 -2.625 C 1.640625 -3.25 1.53125 -3.5625 1.3125 -3.5625 C 1.015625 -3.5625 0.625 -3.09375 0.375 -2.703125 L 0.5 -2.53125 C 0.703125 -2.796875 0.90625 -2.984375 0.96875 -2.984375 C 1.03125 -2.984375 1.078125 -2.890625 1.140625 -2.5 C 1.25 -1.78125 1.375 -0.53125 1.375 0.09375 C 0.984375 0.609375 0.359375 1.296875 -0.484375 1.859375 L -0.421875 2.03125 L 0.40625 1.828125 C 0.84375 1.328125 1.359375 0.640625 1.828125 -0.046875 C 2.25 -0.640625 2.9375 -1.671875 3.265625 -2.28125 C 3.46875 -2.625 3.546875 -2.90625 3.546875 -3.125 C 3.546875 -3.375 3.421875 -3.5625 3.234375 -3.5625 C 3.09375 -3.5625 2.953125 -3.46875 2.90625 -3.328125 C 2.875 -3.28125 2.859375 -3.203125 2.890625 -3.140625 C 2.921875 -3.046875 2.96875 -2.9375 2.984375 -2.765625 C 2.984375 -2.1875 2.25 -1.109375 1.90625 -0.59375 Z M 1.890625 -0.59375 "/>
</symbol>
<symbol overflow="visible" id="glyph4-0">
<path style="stroke:none;" d="M 5.953125 0 L 5.953125 -8.328125 L 0 -8.328125 L 0 0 Z M 5 -7.734375 L 2.96875 -4.703125 L 0.953125 -7.734375 Z M 5.34375 -1.125 L 3.328125 -4.15625 L 5.34375 -7.1875 Z M 0.953125 -0.59375 L 2.96875 -3.625 L 5 -0.59375 Z M 0.59375 -7.1875 L 2.609375 -4.15625 L 0.59375 -1.125 Z M 0.59375 -7.1875 "/>
</symbol>
<symbol overflow="visible" id="glyph4-1">
<path style="stroke:none;" d="M 5.15625 -0.46875 L 5.03125 -0.765625 C 4.90625 -0.703125 4.75 -0.640625 4.609375 -0.640625 C 4.40625 -0.640625 4.1875 -0.828125 4.1875 -1.359375 L 4.1875 -3.5625 C 4.1875 -4.1875 4.0625 -4.65625 3.65625 -5.015625 C 3.390625 -5.234375 3.03125 -5.34375 2.671875 -5.34375 C 2 -5.203125 1.21875 -4.75 0.890625 -4.5 C 0.671875 -4.34375 0.515625 -4.203125 0.515625 -4.03125 C 0.515625 -3.75 0.828125 -3.515625 1.03125 -3.515625 C 1.203125 -3.515625 1.3125 -3.609375 1.375 -3.796875 C 1.46875 -4.15625 1.578125 -4.40625 1.71875 -4.578125 C 1.859375 -4.71875 2.03125 -4.796875 2.265625 -4.796875 C 2.859375 -4.796875 3.265625 -4.328125 3.265625 -3.453125 L 3.265625 -3.265625 C 3.015625 -3.046875 2.140625 -2.71875 1.421875 -2.484375 C 0.765625 -2.265625 0.46875 -1.890625 0.46875 -1.3125 C 0.46875 -0.5625 1.046875 0.140625 1.890625 0.140625 C 2.25 0.140625 2.8125 -0.296875 3.296875 -0.625 C 3.359375 -0.421875 3.421875 -0.25 3.578125 -0.09375 C 3.703125 0.03125 3.953125 0.140625 4.140625 0.140625 Z M 3.265625 -1 C 3.046875 -0.765625 2.625 -0.578125 2.3125 -0.578125 C 1.953125 -0.578125 1.46875 -0.875 1.46875 -1.46875 C 1.46875 -1.921875 1.734375 -2.140625 2.203125 -2.359375 C 2.453125 -2.46875 3.015625 -2.71875 3.265625 -2.859375 Z M 3.265625 -1 "/>
</symbol>
<symbol overflow="visible" id="glyph4-2">
<path style="stroke:none;" d="M 4.515625 -1.265625 C 4.078125 -0.859375 3.640625 -0.671875 3.15625 -0.671875 C 2.3125 -0.671875 1.375 -1.328125 1.375 -2.953125 C 2.796875 -3 4.296875 -3.109375 4.484375 -3.15625 C 4.703125 -3.203125 4.75 -3.296875 4.75 -3.53125 C 4.75 -4.453125 3.953125 -5.34375 2.96875 -5.34375 L 2.953125 -5.34375 C 2.359375 -5.34375 1.71875 -5 1.21875 -4.46875 C 0.734375 -3.9375 0.4375 -3.203125 0.4375 -2.390625 C 0.4375 -1.046875 1.296875 0.140625 2.765625 0.140625 C 3.125 0.140625 3.953125 -0.078125 4.703125 -1 Z M 2.671875 -4.90625 C 3.34375 -4.90625 3.75 -4.328125 3.734375 -3.703125 C 3.734375 -3.53125 3.65625 -3.46875 3.453125 -3.46875 C 2.765625 -3.453125 2.09375 -3.4375 1.421875 -3.4375 C 1.609375 -4.40625 2.140625 -4.90625 2.671875 -4.90625 Z M 2.671875 -4.90625 "/>
</symbol>
<symbol overflow="visible" id="glyph5-0">
<path style="stroke:none;" d="M 5.953125 0 L 5.953125 -8.328125 L 0 -8.328125 L 0 0 Z M 5 -7.734375 L 2.96875 -4.703125 L 0.953125 -7.734375 Z M 5.34375 -1.125 L 3.328125 -4.15625 L 5.34375 -7.1875 Z M 0.953125 -0.59375 L 2.96875 -3.625 L 5 -0.59375 Z M 0.59375 -7.1875 L 2.609375 -4.15625 L 0.59375 -1.125 Z M 0.59375 -7.1875 "/>
</symbol>
<symbol overflow="visible" id="glyph5-1">
<path style="stroke:none;" d="M 0.546875 -7.734375 L 0.546875 -7.390625 C 1.421875 -7.34375 1.515625 -7.28125 1.515625 -6.25 L 1.515625 -1.484375 C 1.515625 -0.5 1.421875 -0.40625 0.46875 -0.328125 L 0.46875 0 L 3.703125 0 L 3.703125 -0.328125 C 2.625 -0.40625 2.515625 -0.46875 2.515625 -1.46875 L 2.515625 -3.34375 L 3.40625 -3.109375 C 3.53125 -3.109375 3.75 -3.109375 3.9375 -3.125 C 5.09375 -3.265625 6.25 -4.015625 6.25 -5.5625 C 6.25 -6.34375 5.953125 -6.890625 5.5 -7.234375 C 5.015625 -7.59375 4.328125 -7.734375 3.484375 -7.734375 Z M 2.515625 -6.640625 C 2.515625 -6.984375 2.5625 -7.140625 2.65625 -7.203125 C 2.734375 -7.28125 2.984375 -7.34375 3.3125 -7.34375 C 4.296875 -7.34375 5.109375 -6.796875 5.109375 -5.515625 C 5.109375 -4 4.15625 -3.59375 3.390625 -3.59375 C 3 -3.59375 2.671875 -3.671875 2.515625 -3.734375 Z M 2.515625 -6.640625 "/>
</symbol>
<symbol overflow="visible" id="glyph5-2">
<path style="stroke:none;" d="M 2.828125 0 L 2.828125 -0.3125 C 2.0625 -0.375 1.96875 -0.453125 1.96875 -1.234375 L 1.96875 -8.46875 C 1.5625 -8.328125 0.828125 -8.125 0.21875 -8.046875 L 0.21875 -7.765625 C 0.96875 -7.6875 1.03125 -7.671875 1.03125 -6.859375 L 1.03125 -1.234375 C 1.03125 -0.453125 0.921875 -0.375 0.171875 -0.3125 L 0.171875 0 Z M 2.828125 0 "/>
</symbol>
<symbol overflow="visible" id="glyph5-3">
<path style="stroke:none;" d="M 3.703125 0 L 3.703125 -0.296875 C 2.625 -0.375 2.5625 -0.484375 2.5625 -1.34375 L 2.5625 -7.546875 C 1.921875 -7.28125 1.21875 -7.0625 0.46875 -6.9375 L 0.46875 -6.640625 L 1.046875 -6.609375 C 1.5625 -6.5625 1.609375 -6.5 1.609375 -5.953125 L 1.609375 -1.34375 C 1.609375 -0.484375 1.5625 -0.375 0.46875 -0.296875 L 0.46875 0 Z M 3.703125 0 "/>
</symbol>
</g>
<clipPath id="clip2">
  <path d="M 194 130 L 218 130 L 218 141.363281 L 194 141.363281 Z M 194 130 "/>
</clipPath>
<clipPath id="clip3">
  <path d="M 24 0.980469 L 49 0.980469 L 49 16 L 24 16 Z M 24 0.980469 "/>
</clipPath>
<clipPath id="clip4">
  <path d="M 24 0.980469 L 49 0.980469 L 49 3 L 24 3 Z M 24 0.980469 "/>
</clipPath>
<clipPath id="clip1">
  <rect x="0" y="0" width="281" height="142"/>
</clipPath>
<g id="surface5" clip-path="url(#clip1)">
<path style="fill-rule:nonzero;fill:rgb(0%,0%,0%);fill-opacity:0.392157;stroke-width:1.010805;stroke-linecap:butt;stroke-linejoin:miter;stroke:rgb(0%,0%,0%);stroke-opacity:1;stroke-miterlimit:4;" d="M 30.829214 67.615377 L 268.302607 67.615377 L 268.302607 73.021071 L 30.829214 73.021071 Z M 30.829214 67.615377 " transform="matrix(0.994322,0,0,0.994322,0.478649,0.979486)"/>
<path style="fill:none;stroke-width:2.125984;stroke-linecap:butt;stroke-linejoin:miter;stroke:rgb(0%,0%,0%);stroke-opacity:1;stroke-miterlimit:4;" d="M 36.36455 67.489663 L 36.36455 10.792733 " transform="matrix(0.994322,0,0,0.994322,0.478649,0.979486)"/>
<path style="fill:none;stroke-width:2.125984;stroke-linecap:butt;stroke-linejoin:miter;stroke:rgb(0%,0%,0%);stroke-opacity:1;stroke-miterlimit:4;" d="M 206.443554 129.847643 L 206.443554 73.154642 " transform="matrix(0.994322,0,0,0.994322,0.478649,0.979486)"/>
<path style="fill-rule:nonzero;fill:rgb(0%,0%,0%);fill-opacity:1;stroke-width:0.75;stroke-linecap:butt;stroke-linejoin:miter;stroke:rgb(0%,0%,0%);stroke-opacity:1;stroke-miterlimit:4;" d="M 200.774647 129.847643 L 212.112461 129.847643 L 206.443554 124.178736 Z M 200.774647 129.847643 " transform="matrix(0.994322,0,0,0.994322,0.478649,0.979486)"/>
<path style="fill-rule:nonzero;fill:rgb(0%,0%,0%);fill-opacity:1;stroke-width:0.75;stroke-linecap:butt;stroke-linejoin:miter;stroke:rgb(0%,0%,0%);stroke-opacity:1;stroke-miterlimit:4;" d="M 200.774647 73.154642 L 206.443554 78.823549 L 212.112461 73.154642 Z M 200.774647 73.154642 " transform="matrix(0.994322,0,0,0.994322,0.478649,0.979486)"/>
<path style="fill:none;stroke-width:0.992126;stroke-linecap:butt;stroke-linejoin:miter;stroke:rgb(0%,0%,0%);stroke-opacity:1;stroke-miterlimit:4;" d="M 195.10574 129.847643 L 217.781369 129.847643 " transform="matrix(0.994322,0,0,0.994322,0.478649,0.979486)"/>
<g clip-path="url(#clip2)" clip-rule="nonzero">
<path style=" stroke:none;fill-rule:nonzero;fill:rgb(0%,0%,0%);fill-opacity:0.392157;" d="M 194.476563 130.089844 L 217.023438 130.089844 L 217.023438 141.367188 L 194.476563 141.367188 Z M 194.476563 130.089844 "/>
</g>
<path style="fill:none;stroke-width:0.725114;stroke-linecap:butt;stroke-linejoin:miter;stroke:rgb(0%,0%,0%);stroke-opacity:1;stroke-miterlimit:4;" d="M 62.630039 -19.045485 L 78.010338 -19.045485 L 70.318224 -29.036161 Z M 62.630039 -19.045485 " transform="matrix(0,0.994322,-0.949714,0,0.478649,0.979486)"/>
<path style="fill:none;stroke-width:0.725114;stroke-linecap:butt;stroke-linejoin:miter;stroke:rgb(0%,0%,0%);stroke-opacity:1;stroke-miterlimit:4;" d="M 58.807553 -19.094842 L 81.54211 -19.094842 " transform="matrix(0,0.994322,-0.949714,0,0.478649,0.979486)"/>
<path style="fill-rule:nonzero;fill:rgb(100%,100%,100%);fill-opacity:1;stroke-width:0.725114;stroke-linecap:butt;stroke-linejoin:miter;stroke:rgb(0%,0%,0%);stroke-opacity:1;stroke-miterlimit:4;" d="M 72.926786 -29.669575 C 72.926786 -28.229997 71.756076 -27.065994 70.318224 -27.065994 C 68.884301 -27.065994 67.71752 -28.229997 67.71752 -29.669575 C 67.71752 -31.105041 68.884301 -32.277269 70.318224 -32.277269 C 71.756076 -32.277269 72.926786 -31.105041 72.926786 -29.669575 Z M 72.926786 -29.669575 " transform="matrix(0,0.994322,-0.949714,0,0.478649,0.979486)"/>
<path style="fill:none;stroke-width:1.450227;stroke-linecap:butt;stroke-linejoin:miter;stroke:rgb(0%,0%,0%);stroke-opacity:1;stroke-miterlimit:4;" d="M 58.95291 -15.874299 L 81.687467 -15.874299 " transform="matrix(0,0.994322,-0.949714,0,0.478649,0.979486)"/>
<g clip-path="url(#clip3)" clip-rule="nonzero">
<path style="fill:none;stroke-width:0.725114;stroke-linecap:butt;stroke-linejoin:miter;stroke:rgb(0%,0%,0%);stroke-opacity:1;stroke-miterlimit:4;" d="M 28.676365 -0.67558 L 44.056664 -0.67558 L 36.36455 -10.666256 Z M 28.676365 -0.67558 " transform="matrix(0.994322,0,0,-0.949714,0.478649,0.979486)"/>
</g>
<g clip-path="url(#clip4)" clip-rule="nonzero">
<path style="fill:none;stroke-width:1.450227;stroke-linecap:butt;stroke-linejoin:miter;stroke:rgb(0%,0%,0%);stroke-opacity:1;stroke-miterlimit:4;" d="M 24.853879 -0.724937 L 47.584508 -0.724937 " transform="matrix(0.994322,0,0,-0.949714,0.478649,0.979486)"/>
</g>
<path style="fill-rule:nonzero;fill:rgb(100%,100%,100%);fill-opacity:1;stroke-width:0.725114;stroke-linecap:butt;stroke-linejoin:miter;stroke:rgb(0%,0%,0%);stroke-opacity:1;stroke-miterlimit:4;" d="M 38.969183 -11.299671 C 38.969183 -9.864205 37.806331 -8.69609 36.36455 -8.69609 C 34.926699 -8.69609 33.763846 -9.864205 33.763846 -11.299671 C 33.763846 -12.739249 34.926699 -13.903251 36.36455 -13.903251 C 37.806331 -13.903251 38.969183 -12.739249 38.969183 -11.299671 Z M 38.969183 -11.299671 " transform="matrix(0.994322,0,0,-0.949714,0.478649,0.979486)"/>
<path style="fill-rule:nonzero;fill:rgb(100%,100%,100%);fill-opacity:1;stroke-width:0.725114;stroke-linecap:butt;stroke-linejoin:miter;stroke:rgb(0%,0%,0%);stroke-opacity:1;stroke-miterlimit:4;" d="M 38.969183 -68.051974 C 38.969183 -66.612395 37.806331 -65.448393 36.36455 -65.448393 C 34.926699 -65.448393 33.763846 -66.612395 33.763846 -68.051974 C 33.763846 -69.48744 34.926699 -70.659668 36.36455 -70.659668 C 37.806331 -70.659668 38.969183 -69.48744 38.969183 -68.051974 Z M 38.969183 -68.051974 " transform="matrix(0.994322,0,0,-0.949714,0.478649,0.979486)"/>
<path style="fill:none;stroke-width:1.015159;stroke-linecap:butt;stroke-linejoin:miter;stroke:rgb(0%,28.627014%,51.371765%);stroke-opacity:1;stroke-miterlimit:4;" d="M 263.136555 -29.105202 L 263.431197 -62.890056 " transform="matrix(0.994322,0,0,-0.949714,0.478649,0.979486)"/>
<path style="fill-rule:nonzero;fill:rgb(100%,100%,100%);fill-opacity:1;stroke-width:0.806093;stroke-linecap:butt;stroke-linejoin:miter;stroke:rgb(0%,28.627014%,51.371765%);stroke-opacity:1;stroke-miterlimit:4;" d="M 57.915031 267.511062 L 71.536971 262.686852 L 57.917014 258.227865 C 62.497976 262.867161 62.497976 262.867161 57.915031 267.511062 Z M 57.915031 267.511062 " transform="matrix(0.00859861,0.949714,0.994322,-0.00821284,0.478649,0.979486)"/>
</g>
<clipPath id="clip5">
  <rect x="0" y="0" width="281" height="142"/>
</clipPath>
<g id="surface8" clip-path="url(#clip5)">
<path style="fill:none;stroke-width:0.767412;stroke-linecap:butt;stroke-linejoin:miter;stroke:rgb(0%,0%,0%);stroke-opacity:1;stroke-miterlimit:4;" d="M 206.443554 -40.979669 L 206.443554 -52.850023 " transform="matrix(0.994322,0,0,-0.949714,0.478649,0.979486)"/>
<path style="fill:none;stroke-width:0.767412;stroke-linecap:butt;stroke-linejoin:miter;stroke:rgb(0%,0%,0%);stroke-opacity:1;stroke-miterlimit:4;" d="M 42.033458 -46.914846 L 200.774647 -46.914846 " transform="matrix(0.994322,0,0,-0.949714,0.478649,0.979486)"/>
<path style="fill-rule:nonzero;fill:rgb(100%,100%,100%);fill-opacity:1;stroke-width:0.806123;stroke-linecap:butt;stroke-linejoin:miter;stroke:rgb(0%,0%,0%);stroke-opacity:1;stroke-miterlimit:4;" d="M 47.706293 -43.42284 L 37.252404 -47.046465 L 47.706293 -50.406853 C 44.186307 -46.914846 44.186307 -46.914846 47.706293 -43.42284 Z M 47.706293 -43.42284 " transform="matrix(0.994322,0,0,-0.949714,0.478649,0.979486)"/>
<path style="fill-rule:nonzero;fill:rgb(100%,100%,100%);fill-opacity:1;stroke-width:0.806123;stroke-linecap:butt;stroke-linejoin:miter;stroke:rgb(0%,0%,0%);stroke-opacity:1;stroke-miterlimit:4;" d="M 195.10574 -43.42284 L 205.5557 -47.046465 L 195.10574 -50.406853 C 198.621798 -46.914846 198.621798 -46.914846 195.10574 -43.42284 Z M 195.10574 -43.42284 " transform="matrix(0.994322,0,0,-0.949714,0.478649,0.979486)"/>
<path style="fill:none;stroke-width:0.767412;stroke-linecap:butt;stroke-linejoin:miter;stroke:rgb(0%,0%,0%);stroke-opacity:1;stroke-miterlimit:4;" d="M 212.112461 -46.914846 L 257.467648 -46.914846 " transform="matrix(0.994322,0,0,-0.949714,0.478649,0.979486)"/>
<path style="fill-rule:nonzero;fill:rgb(100%,100%,100%);fill-opacity:1;stroke-width:0.806123;stroke-linecap:butt;stroke-linejoin:miter;stroke:rgb(0%,0%,0%);stroke-opacity:1;stroke-miterlimit:4;" d="M 217.785297 -43.42284 L 207.331408 -47.046465 L 217.785297 -50.406853 C 214.26531 -46.914846 214.26531 -46.914846 217.785297 -43.42284 Z M 217.785297 -43.42284 " transform="matrix(0.994322,0,0,-0.949714,0.478649,0.979486)"/>
<path style="fill-rule:nonzero;fill:rgb(100%,100%,100%);fill-opacity:1;stroke-width:0.806123;stroke-linecap:butt;stroke-linejoin:miter;stroke:rgb(0%,0%,0%);stroke-opacity:1;stroke-miterlimit:4;" d="M 251.798741 -43.42284 L 262.248702 -47.046465 L 251.798741 -50.406853 C 255.310871 -46.914846 255.310871 -46.914846 251.798741 -43.42284 Z M 251.798741 -43.42284 " transform="matrix(0.994322,0,0,-0.949714,0.478649,0.979486)"/>
</g>
<clipPath id="clip6">
  <rect x="0" y="0" width="281" height="142"/>
</clipPath>
<g id="surface11" clip-path="url(#clip6)">
<path style="fill:none;stroke-width:0.767412;stroke-linecap:butt;stroke-linejoin:miter;stroke:rgb(0%,0%,0%);stroke-opacity:1;stroke-miterlimit:4;" d="M 172.430111 -135.946616 L 183.767925 -135.946616 " transform="matrix(0.994322,0,0,-0.949714,0.478649,0.979486)"/>
<path style="fill:none;stroke-width:0.767412;stroke-linecap:butt;stroke-linejoin:miter;stroke:rgb(0%,0%,0%);stroke-opacity:1;stroke-miterlimit:4;" d="M 178.099018 -82.525909 L 178.099018 -130.011439 " transform="matrix(0.994322,0,0,-0.949714,0.478649,0.979486)"/>
<path style="fill-rule:nonzero;fill:rgb(100%,100%,100%);fill-opacity:1;stroke-width:0.806123;stroke-linecap:butt;stroke-linejoin:miter;stroke:rgb(0%,0%,0%);stroke-opacity:1;stroke-miterlimit:4;" d="M 88.197849 181.591505 L 77.746508 177.965447 L 88.197849 174.606531 C 84.681164 178.099018 84.681164 178.099018 88.197849 181.591505 Z M 88.197849 181.591505 " transform="matrix(0,0.949714,0.994322,0,0.478649,0.979486)"/>
<path style="fill-rule:nonzero;fill:rgb(100%,100%,100%);fill-opacity:1;stroke-width:0.806123;stroke-linecap:butt;stroke-linejoin:miter;stroke:rgb(0%,0%,0%);stroke-opacity:1;stroke-miterlimit:4;" d="M 124.339499 181.591505 L 134.794953 177.965447 L 124.339499 174.606531 C 127.856184 178.099018 127.856184 178.099018 124.339499 181.591505 Z M 124.339499 181.591505 " transform="matrix(0,0.949714,0.994322,0,0.478649,0.979486)"/>
</g>
<clipPath id="clip7">
  <rect x="0" y="0" width="281" height="142"/>
</clipPath>
<g id="surface14" clip-path="url(#clip7)">
<path style="fill:none;stroke-width:0.767412;stroke-linecap:butt;stroke-linejoin:miter;stroke:rgb(0%,0%,0%);stroke-opacity:1;stroke-miterlimit:4;" d="M 59.044108 -17.234848 L 59.044108 -64.720378 " transform="matrix(0.994322,0,0,-0.949714,0.478649,0.979486)"/>
<path style="fill-rule:nonzero;fill:rgb(100%,100%,100%);fill-opacity:1;stroke-width:0.806123;stroke-linecap:butt;stroke-linejoin:miter;stroke:rgb(0%,0%,0%);stroke-opacity:1;stroke-miterlimit:4;" d="M 22.906788 62.536595 L 12.451333 58.906608 L 22.906788 55.551621 C 19.390103 59.044108 19.390103 59.044108 22.906788 62.536595 Z M 22.906788 62.536595 " transform="matrix(0,0.949714,0.994322,0,0.478649,0.979486)"/>
<path style="fill-rule:nonzero;fill:rgb(100%,100%,100%);fill-opacity:1;stroke-width:0.806123;stroke-linecap:butt;stroke-linejoin:miter;stroke:rgb(0%,0%,0%);stroke-opacity:1;stroke-miterlimit:4;" d="M 59.052551 62.536595 L 69.499779 58.906608 L 59.052551 55.551621 C 62.569236 59.044108 62.569236 59.044108 59.052551 62.536595 Z M 59.052551 62.536595 " transform="matrix(0,0.949714,0.994322,0,0.478649,0.979486)"/>
<path style="fill:none;stroke-width:0.767412;stroke-linecap:butt;stroke-linejoin:miter;stroke:rgb(0%,0%,0%);stroke-opacity:1;stroke-miterlimit:4;" d="M 53.371272 -10.913041 L 64.709087 -10.913041 " transform="matrix(0.994322,0,0,-0.949714,0.478649,0.979486)"/>
</g>
<clipPath id="clip8">
  <rect x="0" y="0" width="281" height="142"/>
</clipPath>
<g id="surface17" clip-path="url(#clip8)">
<path style="fill:none;stroke-width:0.522082;stroke-linecap:butt;stroke-linejoin:miter;stroke:rgb(0%,0%,0%);stroke-opacity:1;stroke-miterlimit:4;" d="M 121.406017 -82.525909 L 130.697053 -74.020056 " transform="matrix(0.994322,0,0,-0.949714,0.478649,0.979486)"/>
</g>
<clipPath id="clip9">
  <rect x="0" y="0" width="281" height="142"/>
</clipPath>
<g id="surface20" clip-path="url(#clip9)">
<path style="fill:none;stroke-width:0.374065;stroke-linecap:butt;stroke-linejoin:miter;stroke:rgb(0%,0%,0%);stroke-opacity:1;stroke-miterlimit:4;" d="M 33.339562 20.702043 C 33.339562 25.290014 29.61529 29.014785 25.026736 29.014785 C 20.438182 29.014785 16.71391 25.290014 16.71391 20.702043 C 16.71391 16.106189 20.438182 12.389302 25.026736 12.389302 C 29.61529 12.389302 33.339562 16.106189 33.339562 20.702043 Z M 33.339562 20.702043 " transform="matrix(0.994322,0,0,0.991043,0.478649,0.979486)"/>
</g>
<clipPath id="clip10">
  <rect x="0" y="0" width="281" height="142"/>
</clipPath>
<g id="surface23" clip-path="url(#clip10)">
<path style="fill:none;stroke-width:0.374065;stroke-linecap:butt;stroke-linejoin:miter;stroke:rgb(0%,0%,0%);stroke-opacity:1;stroke-miterlimit:4;" d="M 226.094195 88.957967 C 226.094195 93.545938 222.373851 97.270708 217.781369 97.270708 C 213.192814 97.270708 209.468543 93.545938 209.468543 88.957967 C 209.468543 84.362113 213.192814 80.645226 217.781369 80.645226 C 222.373851 80.645226 226.094195 84.362113 226.094195 88.957967 Z M 226.094195 88.957967 " transform="matrix(0.994322,0,0,0.991043,0.478649,0.979486)"/>
</g>
</defs>
<g id="surface1">
<use xlink:href="#surface5" transform="matrix(1,0,0,1,2,1)"/>
<g style="fill:rgb(0%,28.627014%,51.371765%);fill-opacity:1;">
  <use xlink:href="#glyph0-1" x="266.334896" y="37.915483"/>
</g>
<use xlink:href="#surface8" transform="matrix(1,0,0,1,2,1)"/>
<g style="fill:rgb(0%,0%,0%);fill-opacity:1;">
  <use xlink:href="#glyph1-1" x="118.255505" y="40.899443"/>
</g>
<g style="fill:rgb(0%,0%,0%);fill-opacity:1;">
  <use xlink:href="#glyph0-2" x="124.104106" y="40.899443"/>
</g>
<g style="fill:rgb(0%,0%,0%);fill-opacity:1;">
  <use xlink:href="#glyph0-2" x="234.132787" y="43.550306"/>
</g>
<use xlink:href="#surface11" transform="matrix(1,0,0,1,2,1)"/>
<g style="fill:rgb(0%,0%,0%);fill-opacity:1;">
  <use xlink:href="#glyph0-2" x="172.017497" y="105.560198"/>
</g>
<use xlink:href="#surface14" transform="matrix(1,0,0,1,2,1)"/>
<g style="fill:rgb(0%,0%,0%);fill-opacity:1;">
  <use xlink:href="#glyph0-2" x="63.636408" y="43.550306"/>
</g>
<g style="fill:rgb(0%,0%,0%);fill-opacity:1;">
  <use xlink:href="#glyph2-1" x="17.134954" y="43.438942"/>
</g>
<g style="fill:rgb(0%,0%,0%);fill-opacity:1;">
  <use xlink:href="#glyph0-3" x="24.612255" y="43.438942"/>
</g>
<g style="fill:rgb(0%,0%,0%);fill-opacity:1;">
  <use xlink:href="#glyph3-1" x="29.394944" y="45.222755"/>
</g>
<g style="fill:rgb(0%,0%,0%);fill-opacity:1;">
  <use xlink:href="#glyph2-1" x="212.948758" y="110.427404"/>
</g>
<g style="fill:rgb(0%,0%,0%);fill-opacity:1;">
  <use xlink:href="#glyph0-3" x="220.426059" y="110.427404"/>
</g>
<g style="fill:rgb(0%,0%,0%);fill-opacity:1;">
  <use xlink:href="#glyph3-1" x="225.208748" y="112.210223"/>
</g>
<g style="fill:rgb(0%,0%,0%);fill-opacity:1;">
  <use xlink:href="#glyph1-2" x="73.949514" y="89.324909"/>
</g>
<g style="fill:rgb(0%,0%,0%);fill-opacity:1;">
  <use xlink:href="#glyph1-3" x="78.252723" y="89.324909"/>
</g>
<g style="fill:rgb(0%,0%,0%);fill-opacity:1;">
  <use xlink:href="#glyph4-1" x="81.948834" y="89.324909"/>
</g>
<g style="fill:rgb(0%,0%,0%);fill-opacity:1;">
  <use xlink:href="#glyph1-4" x="87.060643" y="89.324909"/>
</g>
<g style="fill:rgb(0%,0%,0%);fill-opacity:1;">
  <use xlink:href="#glyph1-4" x="91.542162" y="89.324909"/>
</g>
<g style="fill:rgb(0%,0%,0%);fill-opacity:1;">
  <use xlink:href="#glyph4-2" x="95.79775" y="89.324909"/>
</g>
<g style="fill:rgb(0%,0%,0%);fill-opacity:1;">
  <use xlink:href="#glyph5-1" x="103.548489" y="89.324909"/>
</g>
<g style="fill:rgb(0%,0%,0%);fill-opacity:1;">
  <use xlink:href="#glyph5-2" x="110.181612" y="89.324909"/>
</g>
<g style="fill:rgb(0%,0%,0%);fill-opacity:1;">
  <use xlink:href="#glyph4-1" x="113.224236" y="89.324909"/>
</g>
<g style="fill:rgb(0%,0%,0%);fill-opacity:1;">
  <use xlink:href="#glyph1-3" x="118.216726" y="89.324909"/>
</g>
<g style="fill:rgb(0%,0%,0%);fill-opacity:1;">
  <use xlink:href="#glyph1-3" x="121.723485" y="89.324909"/>
</g>
<g style="fill:rgb(0%,0%,0%);fill-opacity:1;">
  <use xlink:href="#glyph4-2" x="125.278401" y="89.324909"/>
</g>
<use xlink:href="#surface17" transform="matrix(1,0,0,1,2,1)"/>
<g style="fill:rgb(0%,0%,0%);fill-opacity:1;">
  <use xlink:href="#glyph5-3" x="25.337116" y="25.926944"/>
</g>
<use xlink:href="#surface20" transform="matrix(1,0,0,1,2,1)"/>
<g style="fill:rgb(0%,0%,0%);fill-opacity:1;">
  <use xlink:href="#glyph1-5" x="216.243941" y="93.572653"/>
</g>
<use xlink:href="#surface23" transform="matrix(1,0,0,1,2,1)"/>
</g>
</svg>
