<?xml version="1.0" encoding="UTF-8"?>
<svg xmlns="http://www.w3.org/2000/svg" xmlns:xlink="http://www.w3.org/1999/xlink" width="102.983pt" height="203.954pt" viewBox="0 0 102.983 203.954" version="1.2">
<defs>
<g>
<symbol overflow="visible" id="glyph0-0">
<path style="stroke:none;" d="M 0 0 L 5.96875 0 L 5.96875 -8.359375 L 0 -8.359375 Z M 2.984375 -4.71875 L 0.953125 -7.765625 L 5.015625 -7.765625 Z M 3.34375 -4.1875 L 5.375 -7.234375 L 5.375 -1.140625 Z M 0.953125 -0.59375 L 2.984375 -3.640625 L 5.015625 -0.59375 Z M 0.59375 -7.234375 L 2.625 -4.1875 L 0.59375 -1.140625 Z M 0.59375 -7.234375 "/>
</symbol>
<symbol overflow="visible" id="glyph0-1">
<path style="stroke:none;" d="M 1.578125 -7.75 L 1.5 -7.4375 C 2.453125 -7.34375 2.5 -7.296875 2.296875 -6.25 L 1.390625 -1.5 C 1.1875 -0.484375 1.09375 -0.40625 0.203125 -0.328125 L 0.125 0 L 3.28125 0 L 3.359375 -0.328125 C 2.265625 -0.40625 2.171875 -0.484375 2.359375 -1.5 L 2.765625 -3.6875 L 4.015625 -3.6875 C 5.046875 -3.6875 5.0625 -3.578125 5.0625 -2.71875 L 5.40625 -2.71875 L 5.859375 -5.015625 L 5.515625 -5.015625 C 5.203125 -4.234375 5.15625 -4.140625 4.125 -4.140625 L 2.875 -4.140625 L 3.390625 -6.890625 C 3.484375 -7.296875 3.5 -7.34375 3.90625 -7.34375 L 4.875 -7.34375 C 5.734375 -7.34375 5.9375 -7.234375 6.03125 -6.9375 C 6.125 -6.6875 6.15625 -6.28125 6.171875 -5.90625 L 6.515625 -5.921875 C 6.59375 -6.625 6.703125 -7.546875 6.734375 -7.75 Z M 1.578125 -7.75 "/>
</symbol>
<symbol overflow="visible" id="glyph0-2">
<path style="stroke:none;" d="M 1.546875 -7.75 L 1.453125 -7.4375 C 2.421875 -7.34375 2.484375 -7.296875 2.3125 -6.328125 L 1.34375 -1.4375 C 1.171875 -0.46875 1.078125 -0.40625 0.09375 -0.328125 L 0.03125 0 L 5.625 0 C 5.796875 -0.375 6.25 -1.515625 6.390625 -1.84375 L 6.046875 -1.953125 C 5.796875 -1.53125 5.515625 -1.09375 5.234375 -0.8125 C 4.90625 -0.5 4.546875 -0.40625 3.65625 -0.40625 C 2.984375 -0.40625 2.625 -0.4375 2.453125 -0.578125 C 2.28125 -0.71875 2.265625 -1.03125 2.40625 -1.71875 L 2.796875 -3.8125 L 3.9375 -3.8125 C 4.96875 -3.8125 4.96875 -3.734375 4.953125 -2.875 L 5.296875 -2.875 L 5.75 -5.15625 L 5.40625 -5.15625 C 5.109375 -4.359375 5.03125 -4.28125 4.046875 -4.28125 L 2.875 -4.28125 L 3.390625 -6.859375 C 3.484375 -7.3125 3.5 -7.34375 3.90625 -7.34375 L 4.84375 -7.34375 C 5.71875 -7.34375 5.875 -7.234375 6 -6.953125 C 6.125 -6.71875 6.15625 -6.359375 6.15625 -5.90625 L 6.5 -5.921875 C 6.59375 -6.640625 6.6875 -7.546875 6.734375 -7.75 Z M 1.546875 -7.75 "/>
</symbol>
<symbol overflow="visible" id="glyph1-0">
<path style="stroke:none;" d="M 0 0 L 5.96875 0 L 5.96875 -8.359375 L 0 -8.359375 Z M 2.984375 -4.71875 L 0.953125 -7.765625 L 5.015625 -7.765625 Z M 3.34375 -4.1875 L 5.375 -7.234375 L 5.375 -1.140625 Z M 0.953125 -0.59375 L 2.984375 -3.640625 L 5.015625 -0.59375 Z M 0.59375 -7.234375 L 2.625 -4.1875 L 0.59375 -1.140625 Z M 0.59375 -7.234375 "/>
</symbol>
<symbol overflow="visible" id="glyph1-1">
<path style="stroke:none;" d="M 2.5625 -1.40625 C 2.234375 -1.046875 1.75 -0.734375 1.625 -0.734375 C 1.546875 -0.734375 1.5 -0.8125 1.578125 -1.15625 C 2.0625 -3.515625 2.5625 -5.84375 3.046875 -8.15625 C 3.09375 -8.40625 3.078125 -8.515625 2.96875 -8.515625 C 2.828125 -8.515625 2.140625 -8.1875 1.203125 -8.09375 L 1.15625 -7.796875 L 1.5 -7.796875 C 2.03125 -7.78125 2.109375 -7.703125 1.984375 -7.1875 C 1.578125 -5.21875 1.15625 -3.265625 0.734375 -1.296875 C 0.484375 -0.125 0.6875 0.140625 0.921875 0.140625 C 1.296875 0.140625 2.140625 -0.390625 2.75 -1.140625 Z M 2.5625 -1.40625 "/>
</symbol>
<symbol overflow="visible" id="glyph1-2">
<path style="stroke:none;" d="M 4.546875 -7.75 L 1.5 -7.75 L 1.421875 -7.4375 C 2.421875 -7.34375 2.5 -7.296875 2.328125 -6.40625 L 1.34375 -1.390625 C 1.1875 -0.484375 1.09375 -0.390625 0.171875 -0.328125 L 0.078125 0 L 3.140625 0 L 3.21875 -0.328125 C 2.234375 -0.390625 2.15625 -0.46875 2.34375 -1.390625 L 3.296875 -6.40625 C 3.484375 -7.28125 3.53125 -7.34375 4.46875 -7.4375 Z M 4.546875 -7.75 "/>
</symbol>
<symbol overflow="visible" id="glyph2-0">
<path style="stroke:none;" d="M 0 0 L 5.96875 0 L 5.96875 -8.359375 L 0 -8.359375 Z M 2.984375 -4.71875 L 0.953125 -7.765625 L 5.015625 -7.765625 Z M 3.34375 -4.1875 L 5.375 -7.234375 L 5.375 -1.140625 Z M 0.953125 -0.59375 L 2.984375 -3.640625 L 5.015625 -0.59375 Z M 0.59375 -7.234375 L 2.625 -4.1875 L 0.59375 -1.140625 Z M 0.59375 -7.234375 "/>
</symbol>
<symbol overflow="visible" id="glyph2-1">
<path style="stroke:none;" d="M 5.015625 -5.53125 C 4.734375 -5.21875 4.484375 -5.078125 4.296875 -5.078125 C 4.09375 -5.078125 3.875 -5.09375 3.328125 -5.1875 C 2.75 -5.28125 2.390625 -5.328125 2.0625 -5.328125 C 1.765625 -5.328125 1.46875 -5.078125 1.1875 -4.625 C 1 -4.328125 0.859375 -4.046875 0.703125 -3.671875 L 1 -3.515625 C 1.34375 -4.125 1.640625 -4.546875 2.1875 -4.546875 C 2.484375 -4.546875 3.015625 -4.5 3.328125 -4.46875 C 3.59375 -4.453125 3.859375 -4.453125 4.046875 -4.5 C 2.953125 -3.3125 1.546875 -1.96875 0.734375 -1.09375 C 0.015625 -0.328125 0.234375 -0.03125 0.3125 0.109375 C 0.375 0.109375 0.40625 0.078125 0.453125 0.015625 C 0.546875 -0.15625 0.6875 -0.328125 0.828125 -0.40625 C 0.984375 -0.53125 1.1875 -0.53125 1.578125 -0.34375 C 2.09375 -0.078125 2.78125 0.234375 3.171875 0.234375 C 3.6875 0.234375 4.171875 -0.125 4.8125 -1.421875 L 4.546875 -1.65625 C 4.015625 -0.828125 3.65625 -0.625 3.328125 -0.625 C 3.03125 -0.625 2.625 -0.78125 2.265625 -0.90625 C 1.890625 -1.046875 1.578125 -1.125 1.34375 -1.09375 C 2.25 -2.03125 3.8125 -3.609375 4.578125 -4.46875 C 4.90625 -4.84375 5.109375 -5.09375 5.265625 -5.28125 Z M 5.015625 -5.53125 "/>
</symbol>
<symbol overflow="visible" id="glyph2-2">
<path style="stroke:none;" d="M 5.46875 -1.09375 C 5.3125 -2.453125 5.21875 -3.84375 5.078125 -5.171875 L 4.78125 -5.171875 C 4.078125 -3.890625 3.28125 -2.578125 2.5625 -1.34375 L 2.53125 -1.34375 C 2.546875 -2.15625 2.515625 -3.234375 2.5 -4.1875 C 2.46875 -5 2.34375 -5.359375 2.0625 -5.359375 C 1.65625 -5.359375 1.046875 -4.78125 0.546875 -4.125 L 0.734375 -3.890625 C 1.1875 -4.34375 1.375 -4.5 1.453125 -4.5 C 1.578125 -4.5 1.609375 -4.28125 1.640625 -3.703125 C 1.6875 -2.5625 1.75 -1.015625 1.75 0.140625 L 2.0625 0.140625 C 2.71875 -0.90625 3.578125 -2.3125 4.34375 -3.578125 L 4.375 -3.578125 C 4.5 -2.375 4.609375 -1.125 4.703125 0.140625 L 5.046875 0.140625 C 5.71875 -0.78125 7.15625 -2.765625 7.5625 -3.4375 C 7.84375 -3.875 8.0625 -4.28125 8.0625 -4.6875 C 8.0625 -5.09375 7.84375 -5.359375 7.546875 -5.359375 C 7.34375 -5.359375 7.140625 -5.203125 7.046875 -5.015625 C 7.015625 -4.90625 7 -4.8125 7.046875 -4.71875 C 7.125 -4.59375 7.1875 -4.40625 7.1875 -4.15625 C 7.171875 -3.40625 5.96875 -1.75 5.484375 -1.09375 Z M 5.46875 -1.09375 "/>
</symbol>
<symbol overflow="visible" id="glyph2-3">
<path style="stroke:none;" d="M 1.046875 -3.875 C 1.453125 -4.40625 1.6875 -4.546875 1.796875 -4.546875 C 1.90625 -4.546875 2.015625 -4.375 2.203125 -3.796875 L 2.609375 -2.546875 C 1.859375 -1.453125 1.296875 -0.75 0.9375 -0.75 C 0.84375 -0.75 0.734375 -0.796875 0.671875 -0.875 C 0.625 -0.9375 0.5625 -0.984375 0.484375 -0.984375 C 0.265625 -0.984375 0 -0.71875 0 -0.4375 C -0.015625 -0.109375 0.234375 0.140625 0.546875 0.140625 C 1.109375 0.140625 1.65625 -0.4375 2.71875 -2.109375 L 3.09375 -0.9375 C 3.328125 -0.203125 3.578125 0.140625 3.890625 0.140625 C 4.296875 0.140625 4.859375 -0.296875 5.40625 -1.140625 L 5.203125 -1.390625 C 4.8125 -0.9375 4.53125 -0.6875 4.34375 -0.6875 C 4.140625 -0.6875 3.96875 -1.046875 3.734375 -1.796875 L 3.359375 -2.984375 C 3.609375 -3.359375 3.875 -3.671875 4.125 -3.96875 C 4.4375 -4.359375 4.671875 -4.5625 4.859375 -4.5625 C 4.953125 -4.5625 5.046875 -4.5 5.109375 -4.421875 C 5.171875 -4.34375 5.234375 -4.3125 5.296875 -4.3125 C 5.46875 -4.3125 5.75 -4.5625 5.765625 -4.859375 C 5.765625 -5.109375 5.5625 -5.359375 5.265625 -5.359375 C 4.75 -5.359375 4.234375 -4.859375 3.234375 -3.390625 L 3.015625 -4.046875 C 2.734375 -4.90625 2.5625 -5.359375 2.25 -5.359375 C 1.859375 -5.359375 1.34375 -4.859375 0.828125 -4.109375 Z M 1.046875 -3.875 "/>
</symbol>
<symbol overflow="visible" id="glyph3-0">
<path style="stroke:none;" d="M 5.96875 0 L 5.96875 -8.359375 L 0 -8.359375 L 0 0 Z M 5.015625 -7.765625 L 2.984375 -4.71875 L 0.953125 -7.765625 Z M 5.375 -1.140625 L 3.34375 -4.1875 L 5.375 -7.234375 Z M 0.953125 -0.59375 L 2.984375 -3.640625 L 5.015625 -0.59375 Z M 0.59375 -7.234375 L 2.625 -4.1875 L 0.59375 -1.140625 Z M 0.59375 -7.234375 "/>
</symbol>
<symbol overflow="visible" id="glyph3-1">
<path style="stroke:none;" d="M 1.140625 -1.546875 C 0.84375 -1.546875 0.546875 -1.34375 0.546875 -1.046875 C 0.546875 -0.859375 0.640625 -0.765625 0.703125 -0.765625 C 1.109375 -0.65625 1.453125 -0.390625 1.453125 0.03125 C 1.453125 0.484375 1.109375 0.8125 0.53125 1.046875 L 0.65625 1.40625 C 1.40625 1.171875 2.21875 0.671875 2.21875 -0.265625 C 2.21875 -1.09375 1.5625 -1.546875 1.140625 -1.546875 Z M 1.140625 -1.546875 "/>
</symbol>
<symbol overflow="visible" id="glyph4-0">
<path style="stroke:none;" d="M 0 0 L 3.984375 0 L 3.984375 -5.578125 L 0 -5.578125 Z M 1.984375 -3.140625 L 0.640625 -5.171875 L 3.34375 -5.171875 Z M 2.234375 -2.78125 L 3.578125 -4.828125 L 3.578125 -0.75 Z M 0.640625 -0.390625 L 1.984375 -2.4375 L 3.34375 -0.390625 Z M 0.390625 -4.828125 L 1.75 -2.78125 L 0.390625 -0.75 Z M 0.390625 -4.828125 "/>
</symbol>
<symbol overflow="visible" id="glyph4-1">
<path style="stroke:none;" d="M 1.90625 -0.59375 C 1.859375 -1.328125 1.796875 -2.046875 1.734375 -2.640625 C 1.65625 -3.28125 1.53125 -3.578125 1.3125 -3.578125 C 1.03125 -3.578125 0.625 -3.109375 0.375 -2.71875 L 0.515625 -2.546875 C 0.703125 -2.828125 0.90625 -3 0.96875 -3 C 1.03125 -3 1.09375 -2.90625 1.140625 -2.515625 C 1.25 -1.78125 1.375 -0.546875 1.390625 0.09375 C 1 0.609375 0.359375 1.3125 -0.484375 1.875 L -0.421875 2.046875 L 0.40625 1.828125 C 0.859375 1.34375 1.375 0.640625 1.84375 -0.046875 C 2.265625 -0.640625 2.953125 -1.6875 3.28125 -2.296875 C 3.484375 -2.640625 3.5625 -2.921875 3.5625 -3.140625 C 3.5625 -3.40625 3.4375 -3.578125 3.25 -3.578125 C 3.109375 -3.578125 2.96875 -3.484375 2.921875 -3.359375 C 2.890625 -3.296875 2.875 -3.21875 2.90625 -3.15625 C 2.9375 -3.0625 2.984375 -2.953125 3 -2.78125 C 3 -2.203125 2.265625 -1.125 1.921875 -0.59375 Z M 1.90625 -0.59375 "/>
</symbol>
</g>
<clipPath id="clip2">
  <path d="M 47 0.988281 L 49 0.988281 L 49 42 L 47 42 Z M 47 0.988281 "/>
</clipPath>
<clipPath id="clip1">
  <rect x="0" y="0" width="100" height="201"/>
</clipPath>
<g id="surface5" clip-path="url(#clip1)">
<g clip-path="url(#clip2)" clip-rule="nonzero">
<path style="fill:none;stroke-width:0.992126;stroke-linecap:butt;stroke-linejoin:miter;stroke:rgb(0%,28.627014%,51.371765%);stroke-opacity:1;stroke-miterlimit:4;" d="M 46.650642 0.000845054 L 46.650642 39.684781 " transform="matrix(0.999795,0,0,0.999795,0.995663,0.987436)"/>
</g>
<path style="fill-rule:nonzero;fill:rgb(100%,100%,100%);fill-opacity:1;stroke-width:0.604724;stroke-linecap:butt;stroke-linejoin:miter;stroke:rgb(0%,28.627014%,51.371765%);stroke-opacity:1;stroke-miterlimit:4;" d="M 34.250071 -43.169458 L 44.470921 -46.787389 L 34.250071 -50.135733 C 37.688277 -46.650642 37.688277 -46.650642 34.250071 -43.169458 Z M 34.250071 -43.169458 " transform="matrix(0,0.999795,-0.999795,0,0.995663,0.987436)"/>
</g>
<clipPath id="clip4">
  <path d="M 35 36 L 60 36 L 60 200.914063 L 35 200.914063 Z M 35 36 "/>
</clipPath>
<clipPath id="clip5">
  <path d="M 36 186 L 60 186 L 60 200.914063 L 36 200.914063 Z M 36 186 "/>
</clipPath>
<clipPath id="clip6">
  <path d="M 35 199 L 60 199 L 60 200.914063 L 35 200.914063 Z M 35 199 "/>
</clipPath>
<clipPath id="clip3">
  <rect x="0" y="0" width="100" height="201"/>
</clipPath>
<g id="surface8" clip-path="url(#clip3)">
<g clip-path="url(#clip4)" clip-rule="nonzero">
<path style="fill:none;stroke-width:2.125984;stroke-linecap:butt;stroke-linejoin:miter;stroke:rgb(0%,0%,0%);stroke-opacity:1;stroke-miterlimit:4;" d="M 46.935857 189.758589 L 46.642828 47.092553 " transform="matrix(0.999795,0,0,0.999795,0.995663,0.987436)"/>
</g>
<g clip-path="url(#clip5)" clip-rule="nonzero">
<path style="fill:none;stroke-width:0.725114;stroke-linecap:butt;stroke-linejoin:miter;stroke:rgb(0%,0%,0%);stroke-opacity:1;stroke-miterlimit:4;" d="M 39.117844 208.685303 L 54.499911 208.685303 L 46.810831 198.696136 Z M 39.117844 208.685303 " transform="matrix(0.999795,0,0,0.954941,0.995663,0.987436)"/>
</g>
<g clip-path="url(#clip6)" clip-rule="nonzero">
<path style="fill:none;stroke-width:1.450227;stroke-linecap:butt;stroke-linejoin:miter;stroke:rgb(0%,0%,0%);stroke-opacity:1;stroke-miterlimit:4;" d="M 35.296746 208.636217 L 58.02798 208.636217 " transform="matrix(0.999795,0,0,0.954941,0.995663,0.987436)"/>
</g>
<path style="fill-rule:nonzero;fill:rgb(100%,100%,100%);fill-opacity:1;stroke-width:0.725114;stroke-linecap:butt;stroke-linejoin:miter;stroke:rgb(0%,0%,0%);stroke-opacity:1;stroke-miterlimit:4;" d="M 49.409021 198.062098 C 49.409021 199.501978 48.244719 200.66779 46.810831 200.66779 C 45.369129 200.66779 44.204827 199.501978 44.204827 198.062098 C 44.204827 196.622218 45.369129 195.456406 46.810831 195.456406 C 48.244719 195.456406 49.409021 196.622218 49.409021 198.062098 Z M 49.409021 198.062098 " transform="matrix(0.999795,0,0,0.954941,0.995663,0.987436)"/>
<path style="fill:none;stroke-width:0.725114;stroke-linecap:butt;stroke-linejoin:miter;stroke:rgb(0%,0%,0%);stroke-opacity:1;stroke-miterlimit:4;" d="M -54.930101 -38.181813 L -39.551941 -38.181813 L -47.241021 -48.17098 Z M -54.930101 -38.181813 " transform="matrix(0,-0.999795,-0.954941,0,0.995663,0.987436)"/>
<path style="fill:none;stroke-width:0.725114;stroke-linecap:butt;stroke-linejoin:miter;stroke:rgb(0%,0%,0%);stroke-opacity:1;stroke-miterlimit:4;" d="M -58.755106 -38.2309 L -36.019966 -38.2309 " transform="matrix(0,-0.999795,-0.954941,0,0.995663,0.987436)"/>
<path style="fill-rule:nonzero;fill:rgb(100%,100%,100%);fill-opacity:1;stroke-width:0.725114;stroke-linecap:butt;stroke-linejoin:miter;stroke:rgb(0%,0%,0%);stroke-opacity:1;stroke-miterlimit:4;" d="M -44.638924 -48.805018 C -44.638924 -47.365138 -45.799319 -46.203417 -47.241021 -46.203417 C -48.678817 -46.203417 -49.843119 -47.365138 -49.843119 -48.805018 C -49.843119 -50.244898 -48.678817 -51.41071 -47.241021 -51.41071 C -45.799319 -51.41071 -44.638924 -50.244898 -44.638924 -48.805018 Z M -44.638924 -48.805018 " transform="matrix(0,-0.999795,-0.954941,0,0.995663,0.987436)"/>
<path style="fill:none;stroke-width:1.450227;stroke-linecap:butt;stroke-linejoin:miter;stroke:rgb(0%,0%,0%);stroke-opacity:1;stroke-miterlimit:4;" d="M -58.606638 -35.011623 L -35.875405 -35.011623 " transform="matrix(0,-0.999795,-0.954941,0,0.995663,0.987436)"/>
<path style="fill:none;stroke-width:0.75;stroke-linecap:butt;stroke-linejoin:miter;stroke:rgb(0%,0%,0%);stroke-opacity:1;stroke-miterlimit:4;" d="M 12.624118 47.092553 L 23.966293 47.092553 " transform="matrix(0.999795,0,0,0.999795,0.995663,0.987436)"/>
<path style="fill:none;stroke-width:0.75;stroke-linecap:butt;stroke-linejoin:miter;stroke:rgb(0%,0%,0%);stroke-opacity:1;stroke-miterlimit:4;" d="M 12.624118 188.828711 L 23.966293 188.828711 " transform="matrix(0.999795,0,0,0.999795,0.995663,0.987436)"/>
<path style="fill:none;stroke-width:0.708661;stroke-linecap:butt;stroke-linejoin:miter;stroke:rgb(0%,0%,0%);stroke-opacity:1;stroke-miterlimit:4;" d="M 18.191669 51.351241 L 18.258089 184.519231 " transform="matrix(0.999795,0,0,0.999795,0.995663,0.987436)"/>
<path style="fill-rule:nonzero;fill:rgb(100%,100%,100%);fill-opacity:1;stroke-width:0.604724;stroke-linecap:butt;stroke-linejoin:miter;stroke:rgb(0%,0%,0%);stroke-opacity:1;stroke-miterlimit:4;" d="M 55.61382 -15.546046 L 47.769822 -18.265383 L 55.612541 -20.785405 C 52.973966 -18.165096 52.973966 -18.165096 55.61382 -15.546046 Z M 55.61382 -15.546046 " transform="matrix(0.00050152,0.999795,-0.999795,0.00050152,0.995663,0.987436)"/>
<path style="fill-rule:nonzero;fill:rgb(100%,100%,100%);fill-opacity:1;stroke-width:0.604724;stroke-linecap:butt;stroke-linejoin:miter;stroke:rgb(0%,0%,0%);stroke-opacity:1;stroke-miterlimit:4;" d="M 180.272249 -15.546027 L 188.115068 -18.265309 L 180.27097 -20.785386 C 182.910824 -18.166336 182.910824 -18.166336 180.272249 -15.546027 Z M 180.272249 -15.546027 " transform="matrix(0.00050152,0.999795,-0.999795,0.00050152,0.995663,0.987436)"/>
</g>
<clipPath id="clip7">
  <rect x="0" y="0" width="100" height="201"/>
</clipPath>
<g id="surface11" clip-path="url(#clip7)">
<path style="fill:none;stroke-width:0.751181;stroke-linecap:butt;stroke-linejoin:miter;stroke:rgb(0%,0%,0%);stroke-opacity:1;stroke-miterlimit:4;" d="M 74.988496 188.828711 L 52.308054 188.828711 L 52.308054 166.148269 " transform="matrix(0.999795,0,0,0.999795,0.995663,0.987436)"/>
<path style="fill-rule:nonzero;fill:rgb(100%,100%,100%);fill-opacity:1;stroke-width:0.604724;stroke-linecap:butt;stroke-linejoin:miter;stroke:rgb(0%,0%,0%);stroke-opacity:1;stroke-miterlimit:4;" d="M -70.733716 -186.207078 L -78.575171 -188.926387 L -70.733716 -191.446436 C -73.370977 -188.824804 -73.370977 -188.824804 -70.733716 -186.207078 Z M -70.733716 -186.207078 " transform="matrix(-0.999795,0,0,-0.999795,0.995663,0.987436)"/>
<path style="fill-rule:nonzero;fill:rgb(100%,100%,100%);fill-opacity:1;stroke-width:0.604724;stroke-linecap:butt;stroke-linejoin:miter;stroke:rgb(0%,0%,0%);stroke-opacity:1;stroke-miterlimit:4;" d="M -170.403049 54.929687 L -162.561594 52.210378 L -170.403049 49.690329 C -167.765789 52.311961 -167.765789 52.311961 -170.403049 54.929687 Z M -170.403049 54.929687 " transform="matrix(0,-0.999795,0.999795,0,0.995663,0.987436)"/>
</g>
<clipPath id="clip8">
  <rect x="0" y="0" width="100" height="201"/>
</clipPath>
<g id="surface14" clip-path="url(#clip8)">
<path style="fill-rule:nonzero;fill:rgb(100%,100%,100%);fill-opacity:1;stroke-width:0.497471;stroke-linecap:butt;stroke-linejoin:miter;stroke:rgb(0%,0%,0%);stroke-opacity:1;stroke-miterlimit:4;" d="M 54.187347 188.828711 C 54.187347 189.86408 53.347331 190.704096 52.308054 190.704096 C 51.272685 190.704096 50.432669 189.86408 50.432669 188.828711 C 50.432669 187.789435 51.272685 186.949418 52.308054 186.949418 C 53.347331 186.949418 54.187347 187.789435 54.187347 188.828711 Z M 54.187347 188.828711 " transform="matrix(0.999795,0,0,0.999795,0.995663,0.987436)"/>
<path style="fill:none;stroke-width:0.751181;stroke-linecap:butt;stroke-linejoin:miter;stroke:rgb(0%,28.627014%,51.371765%);stroke-opacity:1;stroke-miterlimit:4;" d="M 48.799521 118.107147 L 65.810829 118.107147 " transform="matrix(0.999795,0,0,0.999795,0.995663,0.987436)"/>
<path style="fill-rule:nonzero;fill:rgb(100%,100%,100%);fill-opacity:1;stroke-width:0.604724;stroke-linecap:butt;stroke-linejoin:miter;stroke:rgb(0%,28.627014%,51.371765%);stroke-opacity:1;stroke-miterlimit:4;" d="M 61.556049 120.728779 L 69.393597 118.00947 L 61.556049 115.493328 C 64.189402 118.107147 64.189402 118.107147 61.556049 120.728779 Z M 61.556049 120.728779 " transform="matrix(0.999795,0,0,0.999795,0.995663,0.987436)"/>
<path style="fill:none;stroke-width:0.75;stroke-linecap:butt;stroke-linejoin:miter;stroke:rgb(0%,28.627014%,51.371765%);stroke-opacity:1;stroke-miterlimit:4;" d="M 48.799521 112.44192 L 48.799521 123.77628 " transform="matrix(0.999795,0,0,0.999795,0.995663,0.987436)"/>
</g>
</defs>
<g id="surface1">
<use xlink:href="#surface5" transform="matrix(1,0,0,1,1,1)"/>
<g style="fill:rgb(0%,28.627014%,51.371765%);fill-opacity:1;">
  <use xlink:href="#glyph0-1" x="52.311315" y="12.32422"/>
</g>
<use xlink:href="#surface8" transform="matrix(1,0,0,1,1,1)"/>
<g style="fill:rgb(0%,0%,0%);fill-opacity:1;">
  <use xlink:href="#glyph1-1" x="11.198588" y="118.348308"/>
</g>
<use xlink:href="#surface11" transform="matrix(1,0,0,1,1,1)"/>
<g style="fill:rgb(0%,0%,0%);fill-opacity:1;">
  <use xlink:href="#glyph2-1" x="74.904219" y="186.588917"/>
</g>
<g style="fill:rgb(0%,0%,0%);fill-opacity:1;">
  <use xlink:href="#glyph3-1" x="80.53395" y="186.588917"/>
</g>
<g style="fill:rgb(0%,0%,0%);fill-opacity:1;">
  <use xlink:href="#glyph2-2" x="85.111917" y="186.588917"/>
</g>
<g style="fill:rgb(0%,0%,0%);fill-opacity:1;">
  <use xlink:href="#glyph2-3" x="59.531687" y="170.753488"/>
</g>
<use xlink:href="#surface14" transform="matrix(1,0,0,1,1,1)"/>
<path style="fill:none;stroke-width:0.538;stroke-linecap:butt;stroke-linejoin:miter;stroke:rgb(0%,28.627014%,51.371765%);stroke-opacity:1;stroke-miterlimit:10;" d="M -0.000960712 -0.00129377 L 8.489235 -0.00129377 " transform="matrix(0.999775,0,0,-0.999775,79.239242,115.194019)"/>
<g style="fill:rgb(0%,28.627014%,51.371765%);fill-opacity:1;">
  <use xlink:href="#glyph2-2" x="79.120269" y="122.741317"/>
</g>
<g style="fill:rgb(0%,0%,0%);fill-opacity:1;">
  <use xlink:href="#glyph0-2" x="51.836422" y="81.026725"/>
</g>
<g style="fill:rgb(0%,0%,0%);fill-opacity:1;">
  <use xlink:href="#glyph1-2" x="59.354727" y="81.026725"/>
</g>
<g style="fill:rgb(0%,0%,0%);fill-opacity:1;">
  <use xlink:href="#glyph4-1" x="64.163642" y="82.819321"/>
</g>
</g>
</svg>
