<?xml version="1.0" encoding="UTF-8"?>
<svg xmlns="http://www.w3.org/2000/svg" xmlns:xlink="http://www.w3.org/1999/xlink" width="337.35pt" height="67.239pt" viewBox="0 0 337.35 67.239" version="1.2">
<defs>
<g>
<symbol overflow="visible" id="glyph0-0">
<path style="stroke:none;" d="M 0 0 L 5.921875 0 L 5.921875 -8.28125 L 0 -8.28125 Z M 2.953125 -4.671875 L 0.953125 -7.6875 L 4.96875 -7.6875 Z M 3.3125 -4.140625 L 5.328125 -7.15625 L 5.328125 -1.125 Z M 0.953125 -0.59375 L 2.953125 -3.609375 L 4.96875 -0.59375 Z M 0.59375 -7.15625 L 2.609375 -4.140625 L 0.59375 -1.125 Z M 0.59375 -7.15625 "/>
</symbol>
<symbol overflow="visible" id="glyph0-1">
<path style="stroke:none;" d="M 2.546875 -1.390625 C 2.21875 -1.046875 1.734375 -0.734375 1.609375 -0.734375 C 1.53125 -0.734375 1.484375 -0.796875 1.5625 -1.140625 C 2.046875 -3.484375 2.53125 -5.78125 3.015625 -8.0625 C 3.0625 -8.3125 3.046875 -8.421875 2.9375 -8.421875 C 2.796875 -8.421875 2.125 -8.109375 1.1875 -8 L 1.140625 -7.71875 L 1.484375 -7.71875 C 2.015625 -7.703125 2.078125 -7.625 1.96875 -7.109375 C 1.5625 -5.171875 1.140625 -3.234375 0.734375 -1.296875 C 0.484375 -0.125 0.671875 0.140625 0.90625 0.140625 C 1.28125 0.140625 2.125 -0.390625 2.71875 -1.125 Z M 2.546875 -1.390625 "/>
</symbol>
<symbol overflow="visible" id="glyph1-0">
<path style="stroke:none;" d="M 0 0 L 5.921875 0 L 5.921875 -8.28125 L 0 -8.28125 Z M 2.953125 -4.671875 L 0.953125 -7.6875 L 4.96875 -7.6875 Z M 3.3125 -4.140625 L 5.328125 -7.15625 L 5.328125 -1.125 Z M 0.953125 -0.59375 L 2.953125 -3.609375 L 4.96875 -0.59375 Z M 0.59375 -7.15625 L 2.609375 -4.140625 L 0.59375 -1.125 Z M 0.59375 -7.15625 "/>
</symbol>
<symbol overflow="visible" id="glyph1-1">
<path style="stroke:none;" d="M 1.03125 -3.828125 C 1.4375 -4.359375 1.671875 -4.5 1.78125 -4.5 C 1.890625 -4.5 2 -4.328125 2.171875 -3.765625 L 2.578125 -2.515625 C 1.828125 -1.4375 1.28125 -0.75 0.9375 -0.75 C 0.828125 -0.75 0.734375 -0.796875 0.65625 -0.859375 C 0.609375 -0.9375 0.5625 -0.984375 0.46875 -0.984375 C 0.265625 -0.984375 0 -0.703125 0 -0.421875 C -0.015625 -0.109375 0.234375 0.140625 0.546875 0.140625 C 1.09375 0.140625 1.640625 -0.4375 2.703125 -2.09375 L 3.0625 -0.9375 C 3.28125 -0.203125 3.546875 0.140625 3.84375 0.140625 C 4.265625 0.140625 4.796875 -0.296875 5.34375 -1.140625 L 5.140625 -1.375 C 4.765625 -0.921875 4.484375 -0.6875 4.296875 -0.6875 C 4.109375 -0.6875 3.921875 -1.03125 3.703125 -1.78125 L 3.328125 -2.953125 C 3.578125 -3.328125 3.828125 -3.625 4.078125 -3.921875 C 4.390625 -4.3125 4.625 -4.515625 4.796875 -4.515625 C 4.90625 -4.515625 4.984375 -4.453125 5.0625 -4.375 C 5.125 -4.3125 5.1875 -4.265625 5.234375 -4.265625 C 5.421875 -4.265625 5.6875 -4.515625 5.703125 -4.796875 C 5.703125 -5.046875 5.515625 -5.3125 5.203125 -5.3125 C 4.703125 -5.3125 4.1875 -4.796875 3.1875 -3.359375 L 2.984375 -4.015625 C 2.703125 -4.859375 2.546875 -5.3125 2.21875 -5.3125 C 1.84375 -5.3125 1.328125 -4.796875 0.8125 -4.0625 Z M 1.03125 -3.828125 "/>
</symbol>
<symbol overflow="visible" id="glyph2-0">
<path style="stroke:none;" d="M 5.921875 0 L 5.921875 -8.28125 L 0 -8.28125 L 0 0 Z M 4.96875 -7.6875 L 2.953125 -4.671875 L 0.953125 -7.6875 Z M 5.328125 -1.125 L 3.3125 -4.140625 L 5.328125 -7.15625 Z M 0.953125 -0.59375 L 2.953125 -3.609375 L 4.96875 -0.59375 Z M 0.59375 -7.15625 L 2.609375 -4.140625 L 0.59375 -1.125 Z M 0.59375 -7.15625 "/>
</symbol>
<symbol overflow="visible" id="glyph2-1">
<path style="stroke:none;" d="M 1.125 -1.53125 C 0.828125 -1.53125 0.546875 -1.34375 0.546875 -1.046875 C 0.546875 -0.859375 0.640625 -0.75 0.703125 -0.75 C 1.09375 -0.65625 1.4375 -0.390625 1.4375 0.03125 C 1.4375 0.484375 1.09375 0.796875 0.515625 1.046875 L 0.65625 1.390625 C 1.390625 1.15625 2.203125 0.65625 2.203125 -0.265625 C 2.203125 -1.078125 1.546875 -1.53125 1.125 -1.53125 Z M 1.125 -1.53125 "/>
</symbol>
<symbol overflow="visible" id="glyph2-2">
<path style="stroke:none;" d="M 7.09375 0 L 7.09375 -0.28125 L 4.015625 -7.859375 L 3.671875 -7.765625 L 0.515625 -0.28125 L 0.515625 0 Z M 5.875 -0.59375 L 1.265625 -0.59375 L 3.578125 -6.375 Z M 5.875 -0.59375 "/>
</symbol>
<symbol overflow="visible" id="glyph3-0">
<path style="stroke:none;" d="M 0 0 L 5.921875 0 L 5.921875 -8.28125 L 0 -8.28125 Z M 2.953125 -4.671875 L 0.953125 -7.6875 L 4.96875 -7.6875 Z M 3.3125 -4.140625 L 5.328125 -7.15625 L 5.328125 -1.125 Z M 0.953125 -0.59375 L 2.953125 -3.609375 L 4.96875 -0.59375 Z M 0.59375 -7.15625 L 2.609375 -4.140625 L 0.59375 -1.125 Z M 0.59375 -7.15625 "/>
</symbol>
<symbol overflow="visible" id="glyph3-1">
<path style="stroke:none;" d="M 5.8125 -1.34375 C 5.484375 -1 5.078125 -0.71875 4.96875 -0.71875 C 4.890625 -0.71875 4.859375 -0.828125 4.921875 -1.1875 C 5.21875 -2.734375 5.53125 -4.0625 5.859375 -5.3125 L 5.71875 -5.3125 L 4.90625 -5 C 4.75 -4.265625 4.609375 -3.65625 4.484375 -3.109375 C 4.015625 -2.25 2.6875 -0.65625 2.03125 -0.65625 C 1.84375 -0.65625 1.765625 -0.859375 1.890625 -1.4375 C 2.125 -2.390625 2.34375 -3.328125 2.5625 -4.28125 C 2.734375 -5.078125 2.6875 -5.3125 2.421875 -5.3125 C 2.109375 -5.3125 1.375 -4.890625 0.671875 -4.203125 L 0.8125 -3.90625 C 1.21875 -4.25 1.546875 -4.46875 1.640625 -4.46875 C 1.71875 -4.453125 1.734375 -4.359375 1.671875 -4.078125 C 1.453125 -3.171875 1.234375 -2.265625 1.015625 -1.359375 C 0.71875 -0.078125 1.09375 0.140625 1.421875 0.140625 C 1.703125 0.140625 2.046875 0.015625 2.375 -0.21875 C 3 -0.65625 3.703125 -1.375 4.28125 -2.15625 L 4.3125 -2.15625 C 4.21875 -1.75 4.171875 -1.515625 4.078125 -1.109375 C 3.84375 -0.078125 4.015625 0.140625 4.265625 0.140625 C 4.609375 0.140625 5.40625 -0.375 5.96875 -1.0625 Z M 5.8125 -1.34375 "/>
</symbol>
<symbol overflow="visible" id="glyph3-2">
<path style="stroke:none;" d="M 7.515625 -7.96875 C 7.296875 -7.75 7.203125 -7.671875 6.890625 -7.671875 L 2.4375 -7.671875 C 2.125 -7.671875 1.984375 -7.703125 1.875 -7.96875 L 1.625 -7.96875 C 1.484375 -7.328125 1.265625 -6.546875 1.046875 -5.859375 L 1.40625 -5.859375 C 1.625 -6.34375 1.8125 -6.703125 2 -6.9375 C 2.21875 -7.1875 2.4375 -7.28125 3.4375 -7.28125 L 4.0625 -7.28125 L 2.9375 -1.421875 C 2.75 -0.46875 2.671875 -0.390625 1.671875 -0.3125 L 1.609375 0 L 4.828125 0 L 4.890625 -0.3125 C 3.828125 -0.390625 3.734375 -0.46875 3.921875 -1.421875 L 5.015625 -7.28125 L 5.734375 -7.28125 C 6.640625 -7.28125 6.890625 -7.203125 7 -6.921875 C 7.109375 -6.671875 7.140625 -6.3125 7.125 -5.859375 L 7.5 -5.890625 C 7.5625 -6.53125 7.671875 -7.4375 7.765625 -7.96875 Z M 7.515625 -7.96875 "/>
</symbol>
<symbol overflow="visible" id="glyph4-0">
<path style="stroke:none;" d="M 0 0 L 5.921875 0 L 5.921875 -8.28125 L 0 -8.28125 Z M 2.953125 -4.671875 L 0.953125 -7.6875 L 4.96875 -7.6875 Z M 3.3125 -4.140625 L 5.328125 -7.15625 L 5.328125 -1.125 Z M 0.953125 -0.59375 L 2.953125 -3.609375 L 4.96875 -0.59375 Z M 0.59375 -7.15625 L 2.609375 -4.140625 L 0.59375 -1.125 Z M 0.59375 -7.15625 "/>
</symbol>
<symbol overflow="visible" id="glyph4-1">
<path style="stroke:none;" d="M 7.34375 -0.3125 C 6.5 -0.40625 6.421875 -0.5 6.28125 -1.34375 C 6.015625 -2.75 5.765625 -4.234375 5.53125 -5.75 L 5.1875 -7.859375 L 4.828125 -7.765625 L 1.28125 -1.453125 C 0.71875 -0.46875 0.609375 -0.40625 -0.125 -0.3125 L -0.21875 0 L 2.328125 0 L 2.40625 -0.3125 C 1.5 -0.390625 1.421875 -0.46875 1.765625 -1.1875 C 2.015625 -1.734375 2.375 -2.40625 2.578125 -2.796875 L 5.046875 -2.796875 C 5.171875 -2.109375 5.28125 -1.53125 5.34375 -1.046875 C 5.421875 -0.53125 5.375 -0.40625 4.546875 -0.3125 L 4.46875 0 L 7.265625 0 Z M 4.984375 -3.28125 L 2.84375 -3.28125 C 3.34375 -4.28125 3.890625 -5.265625 4.484375 -6.34375 L 4.5 -6.34375 Z M 4.984375 -3.28125 "/>
</symbol>
</g>
<clipPath id="clip2">
  <path d="M 307 20 L 330.191406 20 L 330.191406 38 L 307 38 Z M 307 20 "/>
</clipPath>
<clipPath id="clip3">
  <path d="M 307 33 L 330.191406 33 L 330.191406 35 L 307 35 Z M 307 33 "/>
</clipPath>
<clipPath id="clip4">
  <path d="M 306 36 L 330.191406 36 L 330.191406 38 L 306 38 Z M 306 36 "/>
</clipPath>
<clipPath id="clip5">
  <path d="M 0.535156 12 L 15 12 L 15 36 L 0.535156 36 Z M 0.535156 12 "/>
</clipPath>
<clipPath id="clip6">
  <path d="M 0.535156 12 L 2 12 L 2 37 L 0.535156 37 Z M 0.535156 12 "/>
</clipPath>
<clipPath id="clip7">
  <path d="M 10 40 L 11 40 L 11 63.515625 L 10 63.515625 Z M 10 40 "/>
</clipPath>
<clipPath id="clip8">
  <path d="M 122 40 L 123 40 L 123 63.515625 L 122 63.515625 Z M 122 40 "/>
</clipPath>
<clipPath id="clip9">
  <path d="M 206 40 L 208 40 L 208 63.515625 L 206 63.515625 Z M 206 40 "/>
</clipPath>
<clipPath id="clip10">
  <path d="M 318 40 L 320 40 L 320 63.515625 L 318 63.515625 Z M 318 40 "/>
</clipPath>
<clipPath id="clip1">
  <rect x="0" y="0" width="331" height="64"/>
</clipPath>
<g id="surface5" clip-path="url(#clip1)">
<path style="fill-rule:nonzero;fill:rgb(100%,100%,100%);fill-opacity:1;stroke-width:0.75;stroke-linecap:butt;stroke-linejoin:miter;stroke:rgb(0%,28.627014%,51.371765%);stroke-opacity:1;stroke-miterlimit:4;" d="M 265.638796 12.231003 L 276.971986 12.231003 L 276.971986 34.905285 L 265.638796 34.905285 Z M 265.638796 12.231003 " transform="matrix(0.988868,0,0,0.988868,0.537005,0.96765)"/>
<path style="fill:none;stroke-width:0.75;stroke-linecap:butt;stroke-linejoin:miter;stroke:rgb(0%,28.627014%,51.371765%);stroke-opacity:1;stroke-miterlimit:4;" d="M 265.638796 17.899574 L 276.971986 17.899574 " transform="matrix(0.988868,0,0,0.988868,0.537005,0.96765)"/>
<path style="fill:none;stroke-width:0.75;stroke-linecap:butt;stroke-linejoin:miter;stroke:rgb(0%,28.627014%,51.371765%);stroke-opacity:1;stroke-miterlimit:4;" d="M 265.638796 29.236715 L 276.971986 29.236715 " transform="matrix(0.988868,0,0,0.988868,0.537005,0.96765)"/>
<path style="fill-rule:nonzero;fill:rgb(100%,100%,100%);fill-opacity:1;stroke-width:0.75;stroke-linecap:butt;stroke-linejoin:miter;stroke:rgb(0%,28.627014%,51.371765%);stroke-opacity:1;stroke-miterlimit:4;" d="M 66.879361 12.231003 L 78.220452 12.231003 L 78.220452 34.905285 L 66.879361 34.905285 Z M 66.879361 12.231003 " transform="matrix(0.988868,0,0,0.988868,0.537005,0.96765)"/>
<path style="fill:none;stroke-width:0.75;stroke-linecap:butt;stroke-linejoin:miter;stroke:rgb(0%,28.627014%,51.371765%);stroke-opacity:1;stroke-miterlimit:4;" d="M 66.879361 17.899574 L 78.220452 17.899574 " transform="matrix(0.988868,0,0,0.988868,0.537005,0.96765)"/>
<path style="fill:none;stroke-width:0.75;stroke-linecap:butt;stroke-linejoin:miter;stroke:rgb(0%,28.627014%,51.371765%);stroke-opacity:1;stroke-miterlimit:4;" d="M 66.879361 29.236715 L 78.220452 29.236715 " transform="matrix(0.988868,0,0,0.988868,0.537005,0.96765)"/>
<path style="fill:none;stroke-width:2.125984;stroke-linecap:butt;stroke-linejoin:miter;stroke:rgb(0%,0%,0%);stroke-opacity:1;stroke-miterlimit:4;" d="M 208.613373 23.564194 L 321.996631 23.564194 " transform="matrix(0.988868,0,0,0.988868,0.537005,0.96765)"/>
<g clip-path="url(#clip2)" clip-rule="nonzero">
<path style="fill:none;stroke-width:0.725114;stroke-linecap:butt;stroke-linejoin:miter;stroke:rgb(0%,0%,0%);stroke-opacity:1;stroke-miterlimit:4;" d="M 314.309497 34.663021 L 329.687716 34.663021 L 321.996631 24.671009 Z M 314.309497 34.663021 " transform="matrix(0.988868,0,0,0.944505,0.537005,0.96765)"/>
</g>
<g clip-path="url(#clip3)" clip-rule="nonzero">
<path style="fill:none;stroke-width:0.725114;stroke-linecap:butt;stroke-linejoin:miter;stroke:rgb(0%,0%,0%);stroke-opacity:1;stroke-miterlimit:4;" d="M 310.485681 34.613391 L 333.219216 34.613391 " transform="matrix(0.988868,0,0,0.944505,0.537005,0.96765)"/>
</g>
<path style="fill-rule:nonzero;fill:rgb(100%,100%,100%);fill-opacity:1;stroke-width:0.725114;stroke-linecap:butt;stroke-linejoin:miter;stroke:rgb(0%,0%,0%);stroke-opacity:1;stroke-miterlimit:4;" d="M 324.603779 24.038237 C 324.603779 25.477484 323.438463 26.64377 321.996631 26.64377 C 320.55875 26.64377 319.393434 25.477484 319.393434 24.038237 C 319.393434 22.598991 320.55875 21.432705 321.996631 21.432705 C 323.438463 21.432705 324.603779 22.598991 324.603779 24.038237 Z M 324.603779 24.038237 " transform="matrix(0.988868,0,0,0.944505,0.537005,0.96765)"/>
<g clip-path="url(#clip4)" clip-rule="nonzero">
<path style="fill:none;stroke-width:1.450227;stroke-linecap:butt;stroke-linejoin:miter;stroke:rgb(0%,0%,0%);stroke-opacity:1;stroke-miterlimit:4;" d="M 310.631839 37.835153 L 333.361424 37.835153 " transform="matrix(0.988868,0,0,0.944505,0.537005,0.96765)"/>
</g>
<path style="fill:none;stroke-width:2.125984;stroke-linecap:butt;stroke-linejoin:miter;stroke:rgb(0%,0%,0%);stroke-opacity:1;stroke-miterlimit:4;" d="M 10.189707 23.564194 L 123.572966 23.564194 " transform="matrix(0.988868,0,0,0.988868,0.537005,0.96765)"/>
<path style="fill:none;stroke-width:0.725114;stroke-linecap:butt;stroke-linejoin:miter;stroke:rgb(0%,0%,0%);stroke-opacity:1;stroke-miterlimit:4;" d="M 15.873109 139.365091 L 31.259229 139.365091 L 23.564194 129.377216 Z M 15.873109 139.365091 " transform="matrix(0,0.988868,0.944505,0,0.537005,0.96765)"/>
<path style="fill:none;stroke-width:1.450227;stroke-linecap:butt;stroke-linejoin:miter;stroke:rgb(0%,0%,0%);stroke-opacity:1;stroke-miterlimit:4;" d="M 12.053243 139.315462 L 34.790729 139.315462 " transform="matrix(0,0.988868,0.944505,0,0.537005,0.96765)"/>
<path style="fill-rule:nonzero;fill:rgb(100%,100%,100%);fill-opacity:1;stroke-width:0.725114;stroke-linecap:butt;stroke-linejoin:miter;stroke:rgb(0%,0%,0%);stroke-opacity:1;stroke-miterlimit:4;" d="M 26.171341 128.740308 C 26.171341 130.179554 25.002075 131.34584 23.564194 131.34584 C 22.130263 131.34584 20.964947 130.179554 20.964947 128.740308 C 20.964947 127.305197 22.130263 126.138911 23.564194 126.138911 C 25.002075 126.138911 26.171341 127.305197 26.171341 128.740308 Z M 26.171341 128.740308 " transform="matrix(0,0.988868,0.944505,0,0.537005,0.96765)"/>
<g clip-path="url(#clip5)" clip-rule="nonzero">
<path style="fill:none;stroke-width:0.725114;stroke-linecap:butt;stroke-linejoin:miter;stroke:rgb(0%,0%,0%);stroke-opacity:1;stroke-miterlimit:4;" d="M 15.873109 -0.676308 L 31.259229 -0.676308 L 23.564194 -10.664184 Z M 15.873109 -0.676308 " transform="matrix(0,0.988868,-0.944505,0,0.537005,0.96765)"/>
</g>
<g clip-path="url(#clip6)" clip-rule="nonzero">
<path style="fill:none;stroke-width:1.450227;stroke-linecap:butt;stroke-linejoin:miter;stroke:rgb(0%,0%,0%);stroke-opacity:1;stroke-miterlimit:4;" d="M 12.053243 -0.725938 L 34.790729 -0.725938 " transform="matrix(0,0.988868,-0.944505,0,0.537005,0.96765)"/>
</g>
<path style="fill-rule:nonzero;fill:rgb(100%,100%,100%);fill-opacity:1;stroke-width:0.725114;stroke-linecap:butt;stroke-linejoin:miter;stroke:rgb(0%,0%,0%);stroke-opacity:1;stroke-miterlimit:4;" d="M 26.171341 -11.301092 C 26.171341 -9.865981 25.002075 -8.695559 23.564194 -8.695559 C 22.130263 -8.695559 20.964947 -9.865981 20.964947 -11.301092 C 20.964947 -12.740338 22.130263 -13.906624 23.564194 -13.906624 C 25.002075 -13.906624 26.171341 -12.740338 26.171341 -11.301092 Z M 26.171341 -11.301092 " transform="matrix(0,0.988868,-0.944505,0,0.537005,0.96765)"/>
<path style="fill:none;stroke-width:0.725114;stroke-linecap:butt;stroke-linejoin:miter;stroke:rgb(0%,0%,0%);stroke-opacity:1;stroke-miterlimit:4;" d="M 15.873109 -208.419979 L 31.259229 -208.419979 L 23.564194 -218.41199 Z M 15.873109 -208.419979 " transform="matrix(0,0.988868,-0.944505,0,0.537005,0.96765)"/>
<path style="fill:none;stroke-width:1.450227;stroke-linecap:butt;stroke-linejoin:miter;stroke:rgb(0%,0%,0%);stroke-opacity:1;stroke-miterlimit:4;" d="M 12.053243 -208.469608 L 34.790729 -208.469608 " transform="matrix(0,0.988868,-0.944505,0,0.537005,0.96765)"/>
<path style="fill-rule:nonzero;fill:rgb(100%,100%,100%);fill-opacity:1;stroke-width:0.725114;stroke-linecap:butt;stroke-linejoin:miter;stroke:rgb(0%,0%,0%);stroke-opacity:1;stroke-miterlimit:4;" d="M 26.171341 -219.044762 C 26.171341 -217.605515 25.002075 -216.439229 23.564194 -216.439229 C 22.130263 -216.439229 20.964947 -217.605515 20.964947 -219.044762 C 20.964947 -220.484008 22.130263 -221.650295 23.564194 -221.650295 C 25.002075 -221.650295 26.171341 -220.484008 26.171341 -219.044762 Z M 26.171341 -219.044762 " transform="matrix(0,0.988868,-0.944505,0,0.537005,0.96765)"/>
<g clip-path="url(#clip7)" clip-rule="nonzero">
<path style="fill:none;stroke-width:0.708661;stroke-linecap:butt;stroke-linejoin:miter;stroke:rgb(0%,0%,0%);stroke-opacity:1;stroke-miterlimit:4;" d="M 10.189707 40.573855 L 10.189707 63.252087 " transform="matrix(0.988868,0,0,0.988868,0.537005,0.96765)"/>
</g>
<g clip-path="url(#clip8)" clip-rule="nonzero">
<path style="fill:none;stroke-width:0.708661;stroke-linecap:butt;stroke-linejoin:miter;stroke:rgb(0%,0%,0%);stroke-opacity:1;stroke-miterlimit:4;" d="M 123.217446 40.573855 L 123.217446 63.252087 " transform="matrix(0.988868,0,0,0.988868,0.537005,0.96765)"/>
</g>
<path style="fill:none;stroke-width:0.75;stroke-linecap:butt;stroke-linejoin:miter;stroke:rgb(0%,0%,0%);stroke-opacity:1;stroke-miterlimit:4;" d="M 14.203134 52.32972 L 119.346227 52.120358 " transform="matrix(0.988868,0,0,0.988868,0.537005,0.96765)"/>
<path style="fill-rule:nonzero;fill:rgb(100%,100%,100%);fill-opacity:1;stroke-width:0.604723;stroke-linecap:butt;stroke-linejoin:miter;stroke:rgb(0%,0%,0%);stroke-opacity:1;stroke-miterlimit:4;" d="M 18.357433 54.972929 L 10.513678 52.255568 L 18.355873 49.73493 C 15.715923 52.356643 15.715923 52.356643 18.357433 54.972929 Z M 18.357433 54.972929 " transform="matrix(0.988868,-0.00194257,0.00194257,0.988868,0.537005,0.96765)"/>
<path style="fill-rule:nonzero;fill:rgb(100%,100%,100%);fill-opacity:1;stroke-width:0.604723;stroke-linecap:butt;stroke-linejoin:miter;stroke:rgb(0%,0%,0%);stroke-opacity:1;stroke-miterlimit:4;" d="M 114.995688 54.977109 L 122.834336 52.251053 L 114.990177 49.739102 C 117.631687 52.355389 117.631687 52.355389 114.995688 54.977109 Z M 114.995688 54.977109 " transform="matrix(0.988868,-0.00194257,0.00194257,0.988868,0.537005,0.96765)"/>
<g clip-path="url(#clip9)" clip-rule="nonzero">
<path style="fill:none;stroke-width:0.708661;stroke-linecap:butt;stroke-linejoin:miter;stroke:rgb(0%,0%,0%);stroke-opacity:1;stroke-miterlimit:4;" d="M 208.964942 40.573855 L 208.964942 63.252087 " transform="matrix(0.988868,0,0,0.988868,0.537005,0.96765)"/>
</g>
<g clip-path="url(#clip10)" clip-rule="nonzero">
<path style="fill:none;stroke-width:0.708661;stroke-linecap:butt;stroke-linejoin:miter;stroke:rgb(0%,0%,0%);stroke-opacity:1;stroke-miterlimit:4;" d="M 321.996631 40.573855 L 321.996631 63.252087 " transform="matrix(0.988868,0,0,0.988868,0.537005,0.96765)"/>
</g>
<path style="fill:none;stroke-width:0.75;stroke-linecap:butt;stroke-linejoin:miter;stroke:rgb(0%,0%,0%);stroke-opacity:1;stroke-miterlimit:4;" d="M 212.982319 52.32972 L 318.129363 52.120358 " transform="matrix(0.988868,0,0,0.988868,0.537005,0.96765)"/>
<path style="fill-rule:nonzero;fill:rgb(100%,100%,100%);fill-opacity:1;stroke-width:0.604723;stroke-linecap:butt;stroke-linejoin:miter;stroke:rgb(0%,0%,0%);stroke-opacity:1;stroke-miterlimit:4;" d="M 217.131902 55.36341 L 209.292097 52.646056 L 217.130341 50.125411 C 214.494342 52.747131 214.494342 52.747131 217.131902 55.36341 Z M 217.131902 55.36341 " transform="matrix(0.988868,-0.00194257,0.00194257,0.988868,0.537005,0.96765)"/>
<path style="fill-rule:nonzero;fill:rgb(100%,100%,100%);fill-opacity:1;stroke-width:0.604723;stroke-linecap:butt;stroke-linejoin:miter;stroke:rgb(0%,0%,0%);stroke-opacity:1;stroke-miterlimit:4;" d="M 313.770156 55.367589 L 321.612747 52.645491 L 313.772546 50.129598 C 316.406155 52.745869 316.406155 52.745869 313.770156 55.367589 Z M 313.770156 55.367589 " transform="matrix(0.988868,-0.00194257,0.00194257,0.988868,0.537005,0.96765)"/>
</g>
<clipPath id="clip11">
  <rect x="0" y="0" width="331" height="64"/>
</clipPath>
<g id="surface8" clip-path="url(#clip11)">
<path style="fill:none;stroke-width:0.708661;stroke-linecap:butt;stroke-linejoin:miter;stroke:rgb(0%,0%,0%);stroke-opacity:1;stroke-miterlimit:4;" d="M 10.628181 4.630774 L 10.628181 15.967915 " transform="matrix(0.988868,0,0,0.988868,0.537005,0.96765)"/>
<path style="fill:none;stroke-width:0.708661;stroke-linecap:butt;stroke-linejoin:miter;stroke:rgb(0%,0%,0%);stroke-opacity:1;stroke-miterlimit:4;" d="M 10.628181 10.299344 L 33.306413 10.299344 " transform="matrix(0.988868,0,0,0.988868,0.537005,0.96765)"/>
<path style="fill-rule:nonzero;fill:rgb(100%,100%,100%);fill-opacity:1;stroke-width:0.604724;stroke-linecap:butt;stroke-linejoin:miter;stroke:rgb(0%,0%,0%);stroke-opacity:1;stroke-miterlimit:4;" d="M 29.052023 12.918342 L 36.889266 10.200589 L 29.052023 7.680346 C 31.686822 10.299344 31.686822 10.299344 29.052023 12.918342 Z M 29.052023 12.918342 " transform="matrix(0.988868,0,0,0.988868,0.537005,0.96765)"/>
<path style="fill-rule:nonzero;fill:rgb(100%,100%,100%);fill-opacity:1;stroke-width:0.708661;stroke-linecap:butt;stroke-linejoin:miter;stroke:rgb(0%,0%,0%);stroke-opacity:1;stroke-miterlimit:4;" d="M 12.291225 10.153186 C 12.291225 11.132841 11.501181 11.926836 10.521525 11.926836 C 9.54187 11.926836 8.751825 11.132841 8.751825 10.153186 C 8.751825 9.177481 9.54187 8.383486 10.521525 8.383486 C 11.501181 8.383486 12.291225 9.177481 12.291225 10.153186 Z M 12.291225 10.153186 " transform="matrix(0.988868,0,0,0.988868,0.537005,0.96765)"/>
</g>
<clipPath id="clip12">
  <rect x="0" y="0" width="331" height="64"/>
</clipPath>
<g id="surface11" clip-path="url(#clip12)">
<path style="fill:none;stroke-width:0.708661;stroke-linecap:butt;stroke-linejoin:miter;stroke:rgb(0%,0%,0%);stroke-opacity:1;stroke-miterlimit:4;" d="M 209.059748 5.45637 L 209.059748 16.793511 " transform="matrix(0.988868,0,0,0.988868,0.537005,0.96765)"/>
<path style="fill:none;stroke-width:0.708661;stroke-linecap:butt;stroke-linejoin:miter;stroke:rgb(0%,0%,0%);stroke-opacity:1;stroke-miterlimit:4;" d="M 209.059748 11.124941 L 231.734029 11.124941 " transform="matrix(0.988868,0,0,0.988868,0.537005,0.96765)"/>
<path style="fill-rule:nonzero;fill:rgb(100%,100%,100%);fill-opacity:1;stroke-width:0.604724;stroke-linecap:butt;stroke-linejoin:miter;stroke:rgb(0%,0%,0%);stroke-opacity:1;stroke-miterlimit:4;" d="M 227.479639 13.747889 L 235.320832 11.022235 L 227.479639 8.509893 C 230.118388 11.124941 230.118388 11.124941 227.479639 13.747889 Z M 227.479639 13.747889 " transform="matrix(0.988868,0,0,0.988868,0.537005,0.96765)"/>
<path style="fill-rule:nonzero;fill:rgb(100%,100%,100%);fill-opacity:1;stroke-width:0.708661;stroke-linecap:butt;stroke-linejoin:miter;stroke:rgb(0%,0%,0%);stroke-opacity:1;stroke-miterlimit:4;" d="M 210.722792 10.978783 C 210.722792 11.958438 209.928797 12.748483 208.949142 12.748483 C 207.973436 12.748483 207.179441 11.958438 207.179441 10.978783 C 207.179441 9.999127 207.973436 9.205132 208.949142 9.205132 C 209.928797 9.205132 210.722792 9.999127 210.722792 10.978783 Z M 210.722792 10.978783 " transform="matrix(0.988868,0,0,0.988868,0.537005,0.96765)"/>
</g>
<clipPath id="clip13">
  <rect x="0" y="0" width="331" height="64"/>
</clipPath>
<g id="surface14" clip-path="url(#clip13)">
<path style="fill:none;stroke-width:0.75;stroke-linecap:butt;stroke-linejoin:miter;stroke:rgb(0%,0%,0%);stroke-opacity:1;stroke-miterlimit:4;" d="M 49.8697 12.231003 L 61.210791 12.231003 " transform="matrix(0.988868,0,0,0.988868,0.537005,0.96765)"/>
<path style="fill:none;stroke-width:0.75;stroke-linecap:butt;stroke-linejoin:miter;stroke:rgb(0%,0%,0%);stroke-opacity:1;stroke-miterlimit:4;" d="M 49.8697 34.905285 L 61.210791 34.905285 " transform="matrix(0.988868,0,0,0.988868,0.537005,0.96765)"/>
<path style="fill:none;stroke-width:0.751181;stroke-linecap:butt;stroke-linejoin:miter;stroke:rgb(0%,0%,0%);stroke-opacity:1;stroke-miterlimit:4;" d="M 55.54222 16.513045 L 55.396062 30.816804 " transform="matrix(0.988868,0,0,0.988868,0.537005,0.96765)"/>
<path style="fill-rule:nonzero;fill:rgb(100%,100%,100%);fill-opacity:1;stroke-width:0.604693;stroke-linecap:butt;stroke-linejoin:miter;stroke:rgb(0%,0%,0%);stroke-opacity:1;stroke-miterlimit:4;" d="M 20.197803 -53.085979 L 12.356485 -55.806632 L 20.195679 -58.323954 C 17.55605 -55.701708 17.55605 -55.701708 20.197803 -53.085979 Z M 20.197803 -53.085979 " transform="matrix(-0.0100958,0.988868,-0.988868,-0.0100958,0.537005,0.96765)"/>
<path style="fill-rule:nonzero;fill:rgb(100%,100%,100%);fill-opacity:1;stroke-width:0.604693;stroke-linecap:butt;stroke-linejoin:miter;stroke:rgb(0%,0%,0%);stroke-opacity:1;stroke-miterlimit:4;" d="M 25.992822 -53.08194 L 33.833869 -55.804692 L 25.994607 -58.323904 C 28.632491 -55.700236 28.632491 -55.700236 25.992822 -53.08194 Z M 25.992822 -53.08194 " transform="matrix(-0.0100958,0.988868,-0.988868,-0.0100958,0.537005,0.96765)"/>
<path style="fill:none;stroke-width:0.75;stroke-linecap:butt;stroke-linejoin:miter;stroke:rgb(0%,0%,0%);stroke-opacity:1;stroke-miterlimit:4;" d="M 248.099804 12.286306 L 259.436945 12.286306 " transform="matrix(0.988868,0,0,0.988868,0.537005,0.96765)"/>
<path style="fill:none;stroke-width:0.75;stroke-linecap:butt;stroke-linejoin:miter;stroke:rgb(0%,0%,0%);stroke-opacity:1;stroke-miterlimit:4;" d="M 248.099804 34.964538 L 259.436945 34.964538 " transform="matrix(0.988868,0,0,0.988868,0.537005,0.96765)"/>
<path style="fill:none;stroke-width:0.751181;stroke-linecap:butt;stroke-linejoin:miter;stroke:rgb(0%,0%,0%);stroke-opacity:1;stroke-miterlimit:4;" d="M 253.768375 16.564398 L 253.622217 30.876057 " transform="matrix(0.988868,0,0,0.988868,0.537005,0.96765)"/>
<path style="fill-rule:nonzero;fill:rgb(100%,100%,100%);fill-opacity:1;stroke-width:0.604693;stroke-linecap:butt;stroke-linejoin:miter;stroke:rgb(0%,0%,0%);stroke-opacity:1;stroke-miterlimit:4;" d="M 18.229521 -251.292039 L 10.392153 -254.012731 L 18.227397 -256.530013 C 15.591718 -253.907807 15.591718 -253.907807 18.229521 -251.292039 Z M 18.229521 -251.292039 " transform="matrix(-0.0100958,0.988868,-0.988868,-0.0100958,0.537005,0.96765)"/>
<path style="fill-rule:nonzero;fill:rgb(100%,100%,100%);fill-opacity:1;stroke-width:0.604693;stroke-linecap:butt;stroke-linejoin:miter;stroke:rgb(0%,0%,0%);stroke-opacity:1;stroke-miterlimit:4;" d="M 24.02845 -251.29199 L 31.869496 -254.014742 L 24.030275 -256.530004 C 26.664169 -253.910245 26.664169 -253.910245 24.02845 -251.29199 Z M 24.02845 -251.29199 " transform="matrix(-0.0100958,0.988868,-0.988868,-0.0100958,0.537005,0.96765)"/>
</g>
</defs>
<g id="surface1">
<use xlink:href="#surface5" transform="matrix(1,0,0,1,3,1)"/>
<g style="fill:rgb(0%,0%,0%);fill-opacity:1;">
  <use xlink:href="#glyph0-1" x="70.020555" y="50.774344"/>
</g>
<g style="fill:rgb(0%,0%,0%);fill-opacity:1;">
  <use xlink:href="#glyph0-1" x="266.007408" y="50.83565"/>
</g>
<use xlink:href="#surface8" transform="matrix(1,0,0,1,3,1)"/>
<g style="fill:rgb(0%,0%,0%);fill-opacity:1;">
  <use xlink:href="#glyph1-1" x="26.505056" y="8.061758"/>
</g>
<g style="fill:rgb(0%,0%,0%);fill-opacity:1;">
  <use xlink:href="#glyph2-1" x="33.042071" y="8.061758"/>
</g>
<g style="fill:rgb(0%,0%,0%);fill-opacity:1;">
  <use xlink:href="#glyph3-1" x="37.687495" y="8.061758"/>
</g>
<use xlink:href="#surface11" transform="matrix(1,0,0,1,3,1)"/>
<g style="fill:rgb(0%,0%,0%);fill-opacity:1;">
  <use xlink:href="#glyph1-1" x="222.713402" y="8.876537"/>
</g>
<g style="fill:rgb(0%,0%,0%);fill-opacity:1;">
  <use xlink:href="#glyph2-1" x="229.250417" y="8.876537"/>
</g>
<g style="fill:rgb(0%,0%,0%);fill-opacity:1;">
  <use xlink:href="#glyph3-1" x="233.895841" y="8.876537"/>
</g>
<g style="fill:rgb(0%,28.627014%,51.371765%);fill-opacity:1;">
  <use xlink:href="#glyph2-2" x="67.520846" y="11.099379"/>
</g>
<g style="fill:rgb(0%,28.627014%,51.371765%);fill-opacity:1;">
  <use xlink:href="#glyph3-2" x="75.215756" y="11.099379"/>
</g>
<g style="fill:rgb(0%,28.627014%,51.371765%);fill-opacity:1;">
  <use xlink:href="#glyph2-2" x="264.050555" y="11.099379"/>
</g>
<g style="fill:rgb(0%,28.627014%,51.371765%);fill-opacity:1;">
  <use xlink:href="#glyph3-2" x="271.746454" y="11.099379"/>
</g>
<g style="fill:rgb(0%,0%,0%);fill-opacity:1;">
  <use xlink:href="#glyph4-1" x="101.788016" y="37.289958"/>
</g>
<use xlink:href="#surface14" transform="matrix(1,0,0,1,3,1)"/>
<g style="fill:rgb(0%,0%,0%);fill-opacity:1;">
  <use xlink:href="#glyph4-1" x="297.45845" y="37.511452"/>
</g>
</g>
</svg>
